<svg xmlns="http://www.w3.org/2000/svg" version="1.1" xmlns:xlink="http://www.w3.org/1999/xlink" width="512" height="512" x="0" y="0" viewBox="0 0 64 64" style="enable-background:new 0 0 512 512" xml:space="preserve" class=""><g><path d="M42.675 56.235H6.076A.076.076 0 0 1 6 56.16V41.685L23.796 23.89a.088.088 0 0 1 .125 0l16.25 16.25a1 1 0 1 0 1.415-1.414l-4.364-4.364 8.002-7.992a.1.1 0 0 1 .125 0l10.886 10.897v5.309a1 1 0 0 0 2 0V6.076A2.079 2.079 0 0 0 56.16 4H6.076A2.078 2.078 0 0 0 4 6.076V56.16a2.079 2.079 0 0 0 2.076 2.076h36.599a1 1 0 0 0 0-2zM6.076 6H56.16a.076.076 0 0 1 .076.076v28.361l-9.472-9.481a2.088 2.088 0 0 0-2.953-.001l-8.002 7.991-10.473-10.472a2.09 2.09 0 0 0-2.953 0L6 38.857V6.077A.076.076 0 0 1 6.076 6z" fill="#000000" opacity="1" data-original="#000000" class=""></path><path d="M36.245 23.412a4.99 4.99 0 1 0-4.99-4.99 4.996 4.996 0 0 0 4.99 4.99zm0-7.98a2.99 2.99 0 1 1-2.99 2.99 2.994 2.994 0 0 1 2.99-2.99zM59 51.541h-5.458v-5.458a1 1 0 0 0-2 0v5.458h-5.459a1 1 0 0 0 0 2h5.459V59a1 1 0 0 0 2 0v-5.458H59a1 1 0 0 0 0-2z" fill="#000000" opacity="1" data-original="#000000" class=""></path></g></svg>