<svg xmlns="http://www.w3.org/2000/svg" version="1.1" xmlns:xlink="http://www.w3.org/1999/xlink" width="512" height="512" x="0" y="0" viewBox="0 0 32 32" style="enable-background:new 0 0 512 512" xml:space="preserve" class=""><g><g fill="#000" fill-rule="evenodd" clip-rule="evenodd"><path d="M3.5 16A1.5 1.5 0 0 1 5 14.5h22a1.5 1.5 0 0 1 0 3H5A1.5 1.5 0 0 1 3.5 16z" fill="#000000" opacity="1" data-original="#000000"></path><path d="M15.06 5.94a1.5 1.5 0 0 1 0 2.12L7.122 16l7.94 7.94a1.5 1.5 0 0 1-2.122 2.12l-9-9a1.5 1.5 0 0 1 0-2.12l9-9a1.5 1.5 0 0 1 2.122 0z" fill="#000000" opacity="1" data-original="#000000"></path></g></g></svg>