<svg xmlns="http://www.w3.org/2000/svg" version="1.1" xmlns:xlink="http://www.w3.org/1999/xlink" width="512" height="512" x="0" y="0" viewBox="0 0 58 58" style="enable-background:new 0 0 512 512" xml:space="preserve" class=""><g><g fill="none"><path fill="#2081e9" d="M58 3v35l-1 1H1l-1-1V3a3 3 0 0 1 3-3h52a3 3 0 0 1 3 3z" opacity="1" data-original="#2081e9"></path><path fill="#bac0cc" d="M18 45h22v6H18z" opacity="1" data-original="#bac0cc"></path><path fill="#cdd1da" d="m47 54-7-4H18l-7 4 1 2 34.345-.148zM58 38v5a3 3 0 0 1-3 3H3a3 3 0 0 1-3-3v-5z" opacity="1" data-original="#cdd1da"></path><circle cx="48" cy="10" r="6" fill="#ffc436" opacity="1" data-original="#ffc436"></circle><path fill="#bac0cc" d="M11 54h36v3a1 1 0 0 1-1 1H12a1 1 0 0 1-1-1z" opacity="1" data-original="#bac0cc"></path><path fill="#f33a4d" d="M54 10h-6V4a6 6 0 0 1 6 6z" opacity="1" data-original="#f33a4d"></path><path fill="#79818f" d="M31 43h-4a1 1 0 0 1 0-2h4a1 1 0 0 1 0 2z" opacity="1" data-original="#79818f"></path><path fill="#ffc436" d="M6 16a1 1 0 0 1-1-1v-5a1 1 0 1 1 2 0v5a1 1 0 0 1-1 1z" opacity="1" data-original="#ffc436"></path><path fill="#f686c8" d="M14 16a1 1 0 0 1-1-1v-5a1 1 0 0 1 2 0v5a1 1 0 0 1-1 1z" opacity="1" data-original="#f686c8"></path><path fill="#8ad256" d="M10 16a1 1 0 0 1-1-1V5a1 1 0 1 1 2 0v10a1 1 0 0 1-1 1z" opacity="1" data-original="#8ad256"></path><path fill="#265372" d="M16 16H4a1 1 0 0 1 0-2h12a1 1 0 0 1 0 2z" opacity="1" data-original="#265372"></path><path fill="#ffc436" d="M25 35a1 1 0 0 1-1-1V24a1 1 0 0 1 2 0v10a1 1 0 0 1-1 1z" opacity="1" data-original="#ffc436"></path><path fill="#f686c8" d="M33 35a1 1 0 0 1-1-1v-5a1 1 0 0 1 2 0v5a1 1 0 0 1-1 1z" opacity="1" data-original="#f686c8"></path><path fill="#8ad256" d="M29 35a1 1 0 0 1-1-1v-6a1 1 0 0 1 2 0v6a1 1 0 0 1-1 1z" opacity="1" data-original="#8ad256"></path><path fill="#265372" d="M34 35H24a1 1 0 0 1 0-2h10a1 1 0 0 1 0 2z" opacity="1" data-original="#265372"></path><path fill="#ffc436" d="M32 7h-7a1 1 0 0 1 0-2h7a1 1 0 0 1 0 2z" opacity="1" data-original="#ffc436"></path><path fill="#f686c8" d="M29 15h-4a1 1 0 0 1 0-2h4a1 1 0 0 1 0 2z" opacity="1" data-original="#f686c8"></path><path fill="#8ad256" d="M33 11h-8a1 1 0 0 1 0-2h8a1 1 0 0 1 0 2z" opacity="1" data-original="#8ad256"></path><path fill="#265372" d="M25 17a1 1 0 0 1-1-1V4a1 1 0 0 1 2 0v12a1 1 0 0 1-1 1z" opacity="1" data-original="#265372"></path><path fill="#ffc436" d="M53 26h-8a1 1 0 0 1 0-2h8a1 1 0 0 1 0 2z" opacity="1" data-original="#ffc436"></path><path fill="#f686c8" d="M52 34h-7a1 1 0 0 1 0-2h7a1 1 0 0 1 0 2z" opacity="1" data-original="#f686c8"></path><path fill="#8ad256" d="M49 30h-4a1 1 0 0 1 0-2h4a1 1 0 0 1 0 2z" opacity="1" data-original="#8ad256"></path><path fill="#265372" d="M45 35a1 1 0 0 1-1-1V24a1 1 0 0 1 2 0v10a1 1 0 0 1-1 1z" opacity="1" data-original="#265372"></path><path fill="#ffc436" d="M4 35a1 1 0 0 1-.831-1.555l4-6A1 1 0 0 1 7.973 27c.322 0 .627.147.827.4l2.18 2.907 4.207-5.888a1 1 0 1 1 1.626 1.162l-5 7a1 1 0 0 1-.8.419H11a1 1 0 0 1-.8-.4l-2.152-2.87-3.216 4.825A1 1 0 0 1 4 35z" opacity="1" data-original="#ffc436"></path><path fill="#006dd9" d="M58 19v2H39v17h-2V21H21v17h-2V21H0v-2h19V0h2v19h16V0h2v19z" opacity="1" data-original="#006dd9"></path></g></g></svg>