<svg xmlns="http://www.w3.org/2000/svg" version="1.1" xmlns:xlink="http://www.w3.org/1999/xlink" width="512" height="512" x="0" y="0" viewBox="0 0 511 511" style="enable-background:new 0 0 512 512" xml:space="preserve"><g><path fill="#bfe5fe" d="M487.169 331.099c.221-.853.434-1.712.645-2.572-.209.86-.427 1.716-.645 2.572z" opacity="1" data-original="#bfe5fe"></path><path fill="#ffe565" d="M255.5 32.836c-92.005 0-148.676 51.892-148.832 51.98-3.551 16.39-9.727 40.175-9.727 57.628 0 132.041 111.35 239.056 243.391 239.056 56.27 0 107.971-26.2 148.811-58.729.167-1.019 5.438-22.011 5.438-50.853.001-132.041-107.04-239.082-239.081-239.082z" opacity="1" data-original="#ffe565"></path><path fill="#ffd508" d="M340.312 374.751c-132.041 0-239.082-107.041-239.082-239.082 0-17.453 1.888-34.463 5.438-50.853l-.016.013c-54.984 43.804-90.234 111.325-90.234 187.089 0 90.739 50.549 169.671 125.024 210.173l247.725-11.931c47.841-32.331 83.349-81.53 98.002-139.062.218-.856.437-1.712.645-2.572.099-.409 1.001-4.24 1.329-5.756-40.84 32.531-92.561 51.981-148.831 51.981z" opacity="1" data-original="#ffd508"></path><path fill="#4572e3" d="M261.55 191.231v310.838c33.414-.831 65.122.329 93.774-12.86a238.555 238.555 0 0 0 33.835-19.058l12.4-278.92z" opacity="1" data-original="#4572e3"></path><path fill="#3342ae" d="M355.324 489.207h-46.391c-24.149 0-43.726-19.577-43.726-43.726v-254.25H128.512l12.931 290.859C175.342 500.526 214.198 511 255.5 511c35.638 0 69.446-7.809 99.824-21.793z" opacity="1" data-original="#3342ae"></path><path fill="#3342ae" d="M249.54 91.558 141.087 200.011 87.646 146.57c-13.557-13.557-13.557-35.617 0-49.174l59.279-59.279c13.557-13.557 35.617-13.557 49.174 0zm-108.453 68.118 68.118-68.118-33.274-33.274a6.257 6.257 0 0 0-8.839 0l-59.279 59.279a6.257 6.257 0 0 0 0 8.839z" opacity="1" data-original="#3342ae"></path><path fill="#4572e3" d="M116.592 147.96 264.525.027l47.435 47.435-147.933 147.934z" opacity="1" data-original="#4572e3"></path><path fill="#1a396b" d="m49.506 215.026 73.448-73.448 47.435 47.435-73.448 73.448zM265.036 489.385c-9.189 0-16.637-7.449-16.637-16.637V268.62c0-9.189 7.449-16.637 16.637-16.637 9.189 0 16.637 7.449 16.637 16.637v204.128c0 9.188-7.448 16.637-16.637 16.637zM198.806 489.385c-8.798 0-16.146-6.9-16.602-15.786l-10.458-204.128c-.47-9.177 6.588-16.997 15.764-17.467 9.196-.466 16.997 6.589 17.467 15.764l10.458 204.128c.47 9.177-6.588 16.997-15.764 17.467-.29.015-.579.022-.865.022zM332.883 489.385c-.288 0-.575-.007-.865-.022-9.177-.47-16.234-8.291-15.765-17.467l10.458-204.128c.47-9.177 8.283-16.234 17.467-15.765 9.177.47 16.234 8.291 15.765 17.467l-10.458 204.128c-.456 8.887-7.805 15.787-16.602 15.787z" opacity="1" data-original="#1a396b"></path><path fill="#ffffff" d="m316.073 91.201-16.732 25.837a13.162 13.162 0 0 1-11.046 6.007c-10.774 0-16.983 12.24-10.619 20.933l12.806 17.494a13.16 13.16 0 0 0 13.215 5.128l29.782-5.994a13.16 13.16 0 0 1 8.776 1.282l25.147 13.374c7.072 3.761 15.835.386 18.557-7.148l11.596-32.101a13.161 13.161 0 0 0-6.574-16.283l-18.651-9.163a13.159 13.159 0 0 1-6.768-7.918l-4.635-14.966c-2.163-6.985-9.606-10.867-16.572-8.644l-21.238 6.778a13.168 13.168 0 0 0-7.044 5.384z" opacity="1" data-original="#ffffff"></path></g></svg>