<svg xmlns="http://www.w3.org/2000/svg" version="1.1" xmlns:xlink="http://www.w3.org/1999/xlink" width="512" height="512" x="0" y="0" viewBox="0 0 512 512" style="enable-background:new 0 0 512 512" xml:space="preserve"><g><clipPath id="a"><path d="m255.276 317.237 40.757 5.975-12.031 82.058-40.757-5.976z" fill="#000000" opacity="1" data-original="#000000"></path></clipPath><g data-name="Shopping Basket"><g clip-path="url(#a)"><path fill="#e39c76" d="m255.276 317.237 40.757 5.975-12.031 82.058-40.757-5.976z" opacity="1" data-original="#e39c76"></path><path fill="#d48f6e" d="M288.87 340.16c-7.3 19.08-25.84 28.23-45.26 26.15l6.39-26.53z" opacity="1" data-original="#d48f6e"></path></g><path fill="#e39c76" d="M222.63 278.49c5.57-8.61 10.46-13.12 13.9-18.85 8.51-14.16 12.34-26.25 27.8-31.24a57.2 57.2 0 0 1 15.89-4.34c20.61-3.79 46 8.1 56.94 29.14 12.55 24.24.07 49.5-3 55.78-14.47 29.3-44.45 39.18-56.87 42.14a84 84 0 0 1-21.8 4c-8.23.32-30.26 1.17-39-13.07-2.28-3.73-4.24-11.25-3.55-26.33.88-19.5 4.13-28.62 9.69-37.23z" opacity="1" data-original="#e39c76"></path><path fill="#2d1929" d="M241.46 304.08a.51.51 0 0 1-.41-.21c-2.45-3.5-3.22-6.33-2.26-8.42C240.87 290.9 249 294 258 281.77a.5.5 0 0 1 .81.59c-9.14 12.5-17.25 9.51-19.07 13.51-.8 1.74-.07 4.23 2.17 7.42a.5.5 0 0 1-.45.79zM246.25 277.4c-1.89 3.19-5.09 4.8-7.16 3.58s-2.22-4.8-.33-8 5.09-4.8 7.16-3.58 2.22 4.8.33 8zM278.46 296.39c-1.89 3.2-5.09 4.8-7.16 3.58s-2.22-4.8-.33-8 5.09-4.8 7.16-3.58 2.21 4.81.33 8zM246.51 254.08a1 1 0 0 1-.14-1.41 1 1 0 0 1 1.4-.14c4.6 3.74 10.64 4.35 15.61 1.1a1 1 0 0 1 1.09 1.67c-5.76 3.77-12.75 3.02-17.96-1.22zM296.35 282.31a1 1 0 0 1-.91-.58c-4.66-10-15.41-9.19-15.87-9.15a1 1 0 0 1-.18-2c.12 0 12.6-1 17.86 10.29a1 1 0 0 1-.9 1.44z" opacity="1" data-original="#2d1929"></path><g fill="#e39c76"><path d="M260.29 376.94s-58.11 11-64.92 25.66 5.24 62.82 5.24 62.82H356.1s4.71-57.59 0-71.72-95.81-16.76-95.81-16.76z" fill="#e39c76" opacity="1" data-original="#e39c76"></path><path d="M320.5 184.29Q356.81 235 392.22 288c-25.69 44.52-65.72 77.22-115.7 91.09l71.2 75.39c81.41-124.93 99.18-135.81 97.9-163.87-1.05-23.08-15.53-40.16-44.5-74.34a414.72 414.72 0 0 0-54.45-53.4zM87.49 221.79c-3.8 38.26-7.12 68.32-9.34 87.75-3.58 31.46-5 41.61 0 55.39 8.16 22.46 26.17 34.66 51 51a276.94 276.94 0 0 0 74.06 34.23l45.38-66.44a275.1 275.1 0 0 1-119.44-37.49q-4.68-59.43-9.34-118.87z" fill="#e39c76" opacity="1" data-original="#e39c76"></path><path d="M326.78 188.81s-14.62-5.91-14.62-16.49 2.8-27.65 2.8-33.59-7.16-25.85-2.8-26.16 25.47 25.08 29.07 32.77 8.89 25.27 8.89 25.27zM88.26 239.22s-15.08-27-17.57-36.54 16.93-39.86 16.93-39.86L100.56 201z" fill="#e39c76" opacity="1" data-original="#e39c76"></path></g><path fill="#2d1929" d="M257.64 319.26c-3.45-5.83-11.26-5.59-14.71 0a.5.5 0 0 1-.69.16.49.49 0 0 1-.16-.68 9.73 9.73 0 0 1 9.43-4.71 10 10 0 0 1 7 4.71.5.5 0 0 1-.87.52z" opacity="1" data-original="#2d1929"></path><path fill="#287eef" d="m152.59 358.61-33.74 50.48 69.52 45.34v11l173.34-.06q-.3-15.64-.61-31.31l53.56-78.79-40.57-40.82-85.61 60.85s1.51 22.63-18.84 23.25-23.51-18.48-23.51-18.48z" opacity="1" data-original="#287eef"></path><path fill="#287eef" d="M361.63 481H188.37v-26.57l173.11-.27c.34 8.61.41 17.57.15 26.84z" opacity="1" data-original="#287eef"></path><path fill="#1573d8" d="M188.37 454.43s8.81-48.4 11.61-49-.26 54.16 3.84 59.95S248.63 481 248.63 481h-60.26zM361.1 434.05s-15.35-50.6-18.45-51.54 2.17 56 0 67.68S305 481 305 481h56.63z" opacity="1" data-original="#1573d8"></path><path fill="#40c2d6" d="M244.85 245.1s-4.44-27.12 21.9-27.59c0 0 4.18-14.7 18.41-17s-1.1 6.3 23.14 9.8 71.38 64.14 42.44 90.1c0 0 9.15 34.56-58 45.67 0 0 16.86-18.37 30.42-51.86a27.44 27.44 0 0 1-5.16-28.86c6.6-17.27-36.5-6.3-38.52-32 0 .02-18.69-5.72-34.63 11.74z" opacity="1" data-original="#40c2d6"></path><path fill="#e39c76" d="M308.34 308.42c7.13-6.47 17.24-7 22.57-1.1s3.87 15.88-3.26 22.36-17.24 7-22.57 1.1-3.87-15.88 3.26-22.36z" opacity="1" data-original="#e39c76"></path><path fill="#2d1929" d="M310.16 323.14a7.72 7.72 0 0 1-2-.27.51.51 0 0 1-.32-.63.5.5 0 0 1 .63-.32c.16.05 4 1.22 6-2.14 1.39-2.29-2.66-5.12-2.7-5.15a.5.5 0 0 1 0-.79c.33-.3 8.34-7.27 14.23-4.06 5.15 2.8 2.08 8.71 2.05 8.77a.5.5 0 1 1-.88-.47c.1-.21 2.63-5.09-1.65-7.42-4.52-2.46-10.85 2.13-12.62 3.54 1.22 1 4 3.59 2.47 6.1a5.76 5.76 0 0 1-5.21 2.84z" opacity="1" data-original="#2d1929"></path><path fill="#d48f6e" d="M129.19 346.26c-12.37 3.63-22.43 6.75-29.57 9-9.78 3.09-12.08 3.94-12 4.54.22 1.27 11.27 1.56 21.63-1.71a52.15 52.15 0 0 0 19.94-11.83zM392.22 288s24.8 1.68 39.74-3.69-9.47 21.32-39.74 3.69z" opacity="1" data-original="#d48f6e"></path><path fill="#2d1929" d="M368.26 148.68c-3.13 0-4.73 1.09-4.73 3.28a6.06 6.06 0 0 0 .8 3.09c1 1.94 2.74 3.44 4.13 3.44 1.88 0 4.2-3.77 4.38-5.63V152c0-2.23-1.54-3.32-4.58-3.32zM366.47 92.75c-5.28 1.74-9.61 5.18-11.05 10.56s.23 10.55 5.67 10.55c1.4 0 2.39-1.29 2.39-2.94l-.1-2.14a14.91 14.91 0 0 1 2.39-8.31c3.38-5.31 11.47-5.87 15.24-.55s3.86 12.23-2.89 20.27c-6.13 7.28-18.07 16.75-13.89 23.95a5.31 5.31 0 0 0 4.93 2.59c2.24-.25 3.34-1.64 3.34-4.23 0-10.76 19.72-19.82 19.72-35.51a15.1 15.1 0 0 0-2.39-8.71c-4.83-6.91-15.17-8.16-23.36-5.53z" opacity="1" data-original="#2d1929"></path><path fill="#efbd42" d="m73.11 94.05 167.68-62.39a10.41 10.41 0 0 1 12.86 4.93l55.57 106.22a10.42 10.42 0 0 1-5.6 14.59l-195.87 72.88A10.42 10.42 0 0 1 94 222.9L66.6 106.19a10.41 10.41 0 0 1 6.51-12.14z" opacity="1" data-original="#efbd42"></path><rect width="245.8" height="31.41" x="80.92" y="173.1" fill="#efbd42" rx="4.84" transform="rotate(159.55 203.804 188.858)" opacity="1" data-original="#efbd42"></rect><path fill="#2d1929" d="M228.29 54a7.44 7.44 0 0 1 9.58 4.38l26.3 70.68a7.44 7.44 0 1 1-14 5.19l-26.26-70.66a7.45 7.45 0 0 1 4.38-9.59zM194.34 66.65a7.45 7.45 0 0 1 9.57 4.35l26.3 70.69a7.44 7.44 0 0 1-14 5.19L190 76.22a7.43 7.43 0 0 1 4.34-9.57zM160.38 79.29a7.43 7.43 0 0 1 9.62 4.38l26.3 70.68a7.44 7.44 0 1 1-13.95 5.19L156 88.86a7.45 7.45 0 0 1 4.38-9.57zM126.42 91.92A7.46 7.46 0 0 1 136 96.3l26.3 70.7a7.44 7.44 0 1 1-14 5.19l-26.3-70.7a7.45 7.45 0 0 1 4.42-9.57zM92.47 104.56a7.43 7.43 0 0 1 9.57 4.38l26.3 70.68a7.44 7.44 0 1 1-14 5.2l-26.3-70.69a7.43 7.43 0 0 1 4.43-9.57z" opacity="1" data-original="#2d1929"></path><path fill="#d7981a" d="m303.99 134.78-215.73 67.7 2.71 11.56z" opacity="1" data-original="#d7981a"></path><path fill="#cc3745" d="M214.65 186.86a7.85 7.85 0 0 1 6.63 8.92l-8.92 60.59a7.86 7.86 0 1 1-15.55-2.29l8.92-60.59a7.86 7.86 0 0 1 8.92-6.63z" opacity="1" data-original="#cc3745"></path><circle cx="214.41" cy="188.55" r="14.14" fill="#e73f46" opacity="1" data-original="#e73f46"></circle></g></g></svg>