<svg xmlns="http://www.w3.org/2000/svg" version="1.1" xmlns:xlink="http://www.w3.org/1999/xlink" width="512" height="512" x="0" y="0" viewBox="0 0 512 512.001" style="enable-background:new 0 0 512 512" xml:space="preserve" class=""><g><path fill="#ededed" d="M142.398 0 0 82.215V281.07a48.562 48.562 0 0 0 24.297 42.067L195.87 422.12v-41.559l141.188-82.324V113.785zm0 0" opacity="1" data-original="#ededed"></path><path fill="#ededed" d="M142.398 0 0 82.215V281.07a48.562 48.562 0 0 0 24.297 42.067L195.87 422.12v-41.559l141.188-82.324V113.785zm0 0" opacity="1" data-original="#ededed"></path><path fill="#cecece" d="m195.871 195.3 141.188-81.515v184.457L195.87 380.566zm0 0" opacity="1" data-original="#cecece"></path><path fill="#ffd613" d="M468.64 261.633a73.627 73.627 0 0 0-35.796-52.192l-93.828-54.386c-4.29-2.489-9.157-2.008-12.774.394l-123.504 70.992c-3.949 1.903-6.867 5.899-6.867 10.91v184.77l143.45 82.914c3.722 2.149 7.91 1.863 11.156-.031L475.21 433.32c.129-.07.254-.14.375-.215l.004-.003c3.14-1.891 5.375-5.305 5.375-9.5v-5.11a1004.44 1004.44 0 0 0-12.324-156.86zm0 0" opacity="1" data-original="#ffd613"></path><path fill="#23292e" d="m153.3 367.867-44.566-31.351c-6.558-16.387-17.48-30.95-29.851-38.094-20.055-11.578-36.313.71-36.313 27.453 0 26.738 16.258 57.805 36.313 69.383 9.504 5.488 18.152 5.605 24.625 1.375zm0 0" opacity="1" data-original="#23292e"></path><path fill="#2e373d" d="M502.027 416.414c0-4.148-2.148-8-5.68-10.18l-21.574-13.312.055 22.547-109.226 63.879a16.813 16.813 0 0 1-18.243-.813l-9.09 5.27v20.53l9.243 5.38a16.827 16.827 0 0 0 16.883.031l125.636-72.473a24.139 24.139 0 0 0 11.996-20.859zm0 0" opacity="1" data-original="#2e373d"></path><path fill="#23292e" d="m308.648 457.875-44.57-31.355c-6.555-16.387-17.476-30.95-29.851-38.09-20.055-11.582-36.313.71-36.313 27.449 0 26.742 16.258 57.805 36.313 69.387 9.507 5.488 18.156 5.605 24.628 1.37zm0 0" opacity="1" data-original="#23292e"></path><path fill="#c98000" d="M338.27 504.336v-20.531l9.09-5.274a16.758 16.758 0 0 0 8.593 3.067c-.43-49.61-4.531-99.13-12.281-148.141a73.627 73.627 0 0 0-35.797-52.191l-93.828-54.387c-8.07-4.68-18.176 1.144-18.176 10.473v143.21a110.357 110.357 0 0 1 48.656 58.958l.356 1.027a35.788 35.788 0 0 0 15.902 19.191zm0 0" opacity="1" data-original="#c98000"></path><path fill="#cecece" d="m479.316 361.258-10.523 19.812a40.427 40.427 0 0 1-15.621 16.13l-49.902 28.573a47.37 47.37 0 0 1-24.649 6.247l-24.355-.579v.004-.004l-4.098-2.367c-3.457-1.992-7.777.5-7.777 4.492v26.86a28.749 28.749 0 0 0 7.867 19.758 16.81 16.81 0 0 0 4.867 1.324c0 .008.004.015.004.023a16.789 16.789 0 0 0 8.828-1.347l116.941-68.266c-.109-16.902-.617-33.793-1.582-50.66zm0 0" opacity="1" data-original="#cecece"></path><path fill="#2e373d" d="m348.313 323.008 8.847 67.605c1.176 8.992 11.11 13.907 18.969 9.383l84.867-48.832a18.508 18.508 0 0 0 9.11-18.516l-10.27-76.125c-.461-3.445-4.277-5.308-7.281-3.562l-97.762 56.867a13.251 13.251 0 0 0-6.48 13.18zm0 0" opacity="1" data-original="#2e373d"></path><path fill="#304e75" d="m373.902 382.363 84.868-48.832c5.921-3.41 9.394-9.77 9.23-16.492l-8.164-60.516c-.465-3.445-4.277-5.308-7.281-3.562l-97.762 56.863c-4.3 2.5-6.773 7.18-6.543 12.086l6.684 51.07c1.175 8.993 11.109 13.907 18.968 9.383zm0 0" opacity="1" data-original="#304e75"></path><path fill="#243b58" d="m337.023 386.016-4.203-44.32a52.39 52.39 0 0 0-26.07-40.489l-83.984-48.219c-4.246-2.437-9.54.63-9.54 5.524v34.875a31.588 31.588 0 0 0 12.833 25.418l99.707 73.578c4.93 3.637 11.836-.27 11.257-6.367zm0 0" opacity="1" data-original="#243b58"></path><path fill="#59718b" d="m451.809 253.395-52.891 30.765 50.68 37.399c4.93 3.636 11.836-.274 11.257-6.368l-4.203-44.324c-.586-6.148-2.265-12.039-4.843-17.472zm0 0" opacity="1" data-original="#59718b"></path><path fill="#ffffff" d="M480.902 411.914c-.113-16.898-.62-33.789-1.586-50.652l-10.523 19.812c-.012.028-.027.051-.043.078-3.324 6.22-5.781 12.86-6.645 19.856l-2.91 23.578zm0 0" opacity="1" data-original="#ffffff"></path><path fill="#2e373d" d="m394.043 434.727 65.152-37.403-2.601 19.934a13.162 13.162 0 0 1-6.512 9.715l-39.258 22.464c-4.031 2.305-9.172.735-11.226-3.433zm0 0" opacity="1" data-original="#2e373d"></path><path fill="#23292e" d="m496.348 406.234-15.672-9.668c.11 5.114.191 10.23.226 15.348l-115.3 67.434a16.813 16.813 0 0 1-18.243-.813l-9.09 5.27 9.254 5.375a16.816 16.816 0 0 0 16.852.023l125.652-72.484s10.551-5.117 6.32-10.485zM197.914 415.883c0-12.762 3.707-22.223 9.758-27.375a109.484 109.484 0 0 0-11.8-7.942v-19.652L0 248.364v32.706a48.562 48.562 0 0 0 24.297 42.067l173.906 100.332.121-.082a70.837 70.837 0 0 1-.41-7.504zm0 0" opacity="1" data-original="#23292e"></path><path fill="#82a5b9" d="M195.871 360.914V195.301L0 82.215v166.144zm0 0" opacity="1" data-original="#82a5b9"></path><path fill="#2e373d" d="M270.543 457.813c0 26.742-16.258 39.03-36.316 27.453-20.055-11.582-36.313-42.645-36.313-69.387 0-26.738 16.258-39.031 36.313-27.45 20.058 11.579 36.316 42.641 36.316 69.384zm0 0" opacity="1" data-original="#2e373d"></path><path fill="#cecece" d="M252.082 447.152c0 13.149-7.992 19.192-17.855 13.5-9.86-5.691-17.852-20.964-17.852-34.113 0-13.148 7.992-19.191 17.852-13.5 9.863 5.695 17.855 20.969 17.855 34.113zm0 0" opacity="1" data-original="#cecece"></path><path fill="#627681" d="M243.91 442.438c0 7.128-4.332 10.406-9.683 7.32-5.348-3.086-9.684-11.371-9.684-18.5 0-7.133 4.336-10.41 9.684-7.324 5.351 3.09 9.683 11.37 9.683 18.504zm0 0" opacity="1" data-original="#627681"></path><path fill="#2e373d" d="M115.195 367.805c0 26.742-16.257 39.03-36.312 27.453-20.055-11.578-36.313-42.645-36.313-69.383 0-26.742 16.258-39.031 36.313-27.453 20.055 11.578 36.312 42.644 36.312 69.383zm0 0" opacity="1" data-original="#2e373d"></path><path fill="#cecece" d="M96.738 357.148c0 13.149-7.996 19.192-17.855 13.497-9.86-5.692-17.856-20.965-17.856-34.114 0-13.144 7.996-19.191 17.856-13.496 9.86 5.692 17.855 20.965 17.855 34.113zm0 0" opacity="1" data-original="#cecece"></path><path fill="#627681" d="M88.566 352.43c0 7.132-4.336 10.41-9.683 7.324-5.348-3.09-9.684-11.371-9.684-18.504s4.336-10.406 9.684-7.32c5.347 3.086 9.683 11.37 9.683 18.5zm0 0" opacity="1" data-original="#627681"></path><path fill="#ffffff" d="M393.75 441.676c-2.61-5.95-8.531-9.516-15.023-9.653-.036-.003-.07-.003-.106-.003l-24.351-.579-.004.004c.98 16.696 1.496 33.418 1.64 50.153-.261-.02-.523-.059-.781-.09 0 .008.004.015.004.023a16.827 16.827 0 0 0 8.828-1.347l37.16-21.692zm0 0" opacity="1" data-original="#ffffff"></path></g></svg>