<svg xmlns="http://www.w3.org/2000/svg" version="1.1" xmlns:xlink="http://www.w3.org/1999/xlink" width="512" height="512" x="0" y="0" viewBox="0 0 24 24" style="enable-background:new 0 0 512 512" xml:space="preserve" class=""><g><path d="M6.5 19h-2a.5.5 0 0 1 0-1h2a.5.5 0 0 1 0 1zM22.75 19H21.5a.5.5 0 0 1 0-1h.835l.674-3.592C23 12.57 21.43 11 19.5 11h-3.283l-1.591 7H17.5a.5.5 0 0 1 0 1H14a.5.5 0 0 1-.488-.61l1.818-8a.5.5 0 0 1 .488-.39H19.5c2.481 0 4.5 2.019 4.5 4.5l-.759 4.092a.499.499 0 0 1-.491.408z" fill="#000000" opacity="1" data-original="#000000"></path><path d="M19.5 21c-1.378 0-2.5-1.121-2.5-2.5s1.122-2.5 2.5-2.5 2.5 1.121 2.5 2.5-1.122 2.5-2.5 2.5zm0-4c-.827 0-1.5.673-1.5 1.5s.673 1.5 1.5 1.5 1.5-.673 1.5-1.5-.673-1.5-1.5-1.5zM8.5 21C7.122 21 6 19.879 6 18.5S7.122 16 8.5 16s2.5 1.121 2.5 2.5S9.878 21 8.5 21zm0-4c-.827 0-1.5.673-1.5 1.5S7.673 20 8.5 20s1.5-.673 1.5-1.5S9.327 17 8.5 17zM6.5 10h-4a.5.5 0 0 1 0-1h4a.5.5 0 0 1 0 1zM6.5 13h-5a.5.5 0 0 1 0-1h5a.5.5 0 0 1 0 1zM6.5 16h-6a.5.5 0 0 1 0-1h6a.5.5 0 0 1 0 1z" fill="#000000" opacity="1" data-original="#000000"></path><path d="M14 19h-3.5a.5.5 0 0 1 0-1h3.101l2.272-10H4.5a.5.5 0 0 1 0-1h12a.5.5 0 0 1 .488.61l-2.5 11A.5.5 0 0 1 14 19z" fill="#000000" opacity="1" data-original="#000000"></path></g></svg>