<svg xmlns="http://www.w3.org/2000/svg" version="1.1" xmlns:xlink="http://www.w3.org/1999/xlink" width="512" height="512" x="0" y="0" viewBox="0 0 64 64" style="enable-background:new 0 0 512 512" xml:space="preserve" class=""><g><path fill="#e09f44" d="m55.607 25.644-23.6 11.467-23.6-11.467c.35-.55.85-1 1.466-1.284l20.534-9.983c1-.483 2.183-.483 3.2 0L54.14 24.36c.6.284 1.1.734 1.467 1.284z" opacity="1" data-original="#e09f44"></path><path d="m55.607 25.644-23.6 11.467v-23.1c.533 0 1.1.116 1.6.366L54.14 24.36c.6.284 1.1.734 1.467 1.284z" opacity="1" fill="#00000010" data-original="#00000010"></path><path fill="#ffe691" d="M32.012 37.115V64c-.555 0-1.11-.107-1.6-.363L9.864 53.651a3.61 3.61 0 0 1-2.049-3.264V27.64c0-.704.214-1.408.598-2.006z" opacity="1" data-original="#ffe691"></path><path fill="#ffdc6e" d="M56.187 27.641v22.746a3.61 3.61 0 0 1-2.048 3.264l-20.527 9.986a3.575 3.575 0 0 1-1.6.363V37.115l23.6-11.48a3.91 3.91 0 0 1 .575 2.006z" opacity="1" data-original="#ffdc6e"></path><path d="M56.19 27.644v22.699c0 1.416-.8 2.683-2.066 3.3l-20.532 9.982c-1 .484-2.184.484-3.2 0l-19.416-9.432c13.383 3.466 27.099.35 35.982-8.55 6.05-6.05 8.332-13.25 9.232-18z" opacity="1" fill="#00000010" data-original="#00000010"></path><g fill="#f0bd59"><path d="m22.856 45.56-18.23-8.868a2.932 2.932 0 0 1-1.087-4.363l4.877-6.692L32.002 37.11l-5.494 7.54a2.932 2.932 0 0 1-3.652.91z" fill="#f0bd59" opacity="1" data-original="#f0bd59"></path><path d="m41.144 45.56 18.23-8.868a2.932 2.932 0 0 0 1.087-4.363l-4.877-6.692L31.998 37.11l5.494 7.54a2.932 2.932 0 0 0 3.652.91z" fill="#f0bd59" opacity="1" data-original="#f0bd59"></path></g><circle cx="32" cy="14.508" r="14.508" fill="#f7524b" opacity="1" data-original="#f7524b"></circle><path fill="#f0f0fc" d="M38.782 7.726a2.766 2.766 0 0 0-3.912 0L32 10.596l-2.87-2.87a2.766 2.766 0 0 0-3.912 3.912l2.87 2.87-2.87 2.87a2.766 2.766 0 1 0 3.912 3.912L32 18.42l2.87 2.87a2.766 2.766 0 0 0 3.912-3.912l-2.87-2.87 2.87-2.87a2.766 2.766 0 0 0 0-3.912z" opacity="1" data-original="#f0f0fc"></path><path d="M46.511 14.512c0 8-6.507 14.507-14.507 14.507a14.472 14.472 0 0 1-13.568-9.408c5.568 4.032 13.206 4.139 18.368.128 4.587-3.562 6.592-9.834 5.12-15.787a14.389 14.389 0 0 1 4.587 10.56z" opacity="1" fill="#00000010" data-original="#00000010"></path></g></svg>