<svg xmlns="http://www.w3.org/2000/svg" version="1.1" xmlns:xlink="http://www.w3.org/1999/xlink" width="512" height="512" x="0" y="0" viewBox="0 0 512 512" style="enable-background:new 0 0 512 512" xml:space="preserve" class=""><g><path fill="#e9e9e9" d="M500.1 219.7c-11 29.8-27.3 56.5-46 81.8-24.5 33-52.7 62.8-82.6 90.9-36.1 33.9-74.6 65.1-114.3 94.7-.3.2-.6.4-1 .7-.1.1-.3.2-.4.3-11.9-9.6-23.7-19.1-35.4-28.8-34.1-28-67.5-56.8-99-87.7-28.5-27.9-55.2-57.3-77.7-90.3C29.2 260.4 17.1 238.2 9 214 2.3 194-1.2 173.5.4 152.5 3.3 114.2 17 80.8 46.6 55.1 65.4 38.8 87.6 29.8 112 26c11.5-1.8 23.1-2.3 34.7-1.5 41.6 2.9 74.6 21.3 98.2 55.8 3.9 5.6 7.2 11.6 10.9 17.5.1-.1.1-.2.2-.3 1.8-3.1 3.5-6.3 5.4-9.4 13.1-21.8 30.1-39.5 53-51.2 21.4-11.1 44.3-14.6 68.2-12.5 20.9 1.8 40.9 6.8 59.5 16.5 37.1 19.2 59.3 49.7 67.2 90.5 6 30.3 1.3 59.7-9.2 88.3z" opacity="1" data-original="#ff4c4c" class=""></path></g></svg>