<svg xmlns="http://www.w3.org/2000/svg" version="1.1" xmlns:xlink="http://www.w3.org/1999/xlink" width="512" height="512" x="0" y="0" viewBox="0 0 64 64" style="enable-background:new 0 0 512 512" xml:space="preserve" class=""><g><linearGradient id="b" x1="0" x2="64" y1="34" y2="34" gradientTransform="matrix(1 0 0 -1 0 66)" gradientUnits="userSpaceOnUse"><stop offset="0" stop-color="#e9a254"></stop><stop offset="1" stop-color="#f4bb79"></stop></linearGradient><linearGradient id="c" x1="0" x2="64" y1="45" y2="45" gradientTransform="matrix(1 0 0 -1 0 66)" gradientUnits="userSpaceOnUse"><stop offset="0" stop-color="#9b756d"></stop><stop offset="1" stop-color="#bc9388"></stop></linearGradient><linearGradient id="a"><stop offset="0" stop-color="#474f72"></stop><stop offset="1" stop-color="#878c9f"></stop></linearGradient><linearGradient xlink:href="#a" id="d" x1="0" x2="40" y1="34" y2="34" gradientTransform="matrix(1 0 0 -1 0 66)" gradientUnits="userSpaceOnUse"></linearGradient><linearGradient xlink:href="#a" id="e" x1="11" x2="29" y1="60" y2="60" gradientTransform="matrix(1 0 0 -1 0 66)" gradientUnits="userSpaceOnUse"></linearGradient><linearGradient id="f" x1="8" x2="32" y1="34" y2="34" gradientTransform="matrix(1 0 0 -1 0 66)" gradientUnits="userSpaceOnUse"><stop offset="0" stop-color="#8cdd79"></stop><stop offset="1" stop-color="#d4e6b6"></stop></linearGradient><linearGradient id="g" x1="14.996" x2="27.004" y1="34.001" y2="34.001" gradientTransform="matrix(1 0 0 -1 0 66)" gradientUnits="userSpaceOnUse"><stop offset="0" stop-color="#d4d8e1"></stop><stop offset="1" stop-color="#f3f4f5"></stop></linearGradient><linearGradient id="h" x1="9" x2="31" y1="11" y2="11" gradientTransform="matrix(1 0 0 -1 0 66)" gradientUnits="userSpaceOnUse"><stop offset="0" stop-color="#949aaf"></stop><stop offset="1" stop-color="#c6ccda"></stop></linearGradient><linearGradient id="i" x1="45" x2="59" y1="46" y2="46" gradientUnits="userSpaceOnUse"><stop offset="0" stop-color="#da5466"></stop><stop offset="1" stop-color="#f4929c"></stop></linearGradient><path fill="url(#b)" d="M4 10h56c2.2 0 4 1.8 4 4v36c0 2.2-1.8 4-4 4H4c-2.2 0-4-1.8-4-4V14c0-2.2 1.8-4 4-4z" opacity="1" data-original="url(#b)"></path><path fill="url(#c)" d="M0 16h64v10H0z" opacity="1" data-original="url(#c)"></path><path fill="#d7f1ff" d="M8 2h24c3.3 0 6 2.7 6 6v48c0 3.3-2.7 6-6 6H8c-3.3 0-6-2.7-6-6V8c0-3.3 2.7-6 6-6z" opacity="1" data-original="#d7f1ff"></path><path fill="url(#a)" d="M32 64H8c-4.4 0-8-3.6-8-8V8c0-4.4 3.6-8 8-8h24c4.4 0 8 3.6 8 8v48c0 4.4-3.6 8-8 8zM8 4C5.8 4 4 5.8 4 8v48c0 2.2 1.8 4 4 4h24c2.2 0 4-1.8 4-4V8c0-2.2-1.8-4-4-4z" opacity="1" data-original="url(#a)"></path><path fill="url(#a)" d="M25 8H15c-2.2 0-4-1.8-4-4h18c0 2.2-1.8 4-4 4z" opacity="1" data-original="url(#a)"></path><circle cx="20" cy="32" r="12" fill="url(#f)" opacity="1" data-original="url(#f)"></circle><circle cx="20" cy="32" r="10" fill="#7ece67" opacity="1" data-original="#7ece67"></circle><path fill="url(#g)" d="M20 36c-.6 0-.3.1-4.7-4.3-.4-.4-.4-1 0-1.4s1-.4 1.4 0l3.3 3.3 5.3-5.3c.4-.4 1-.4 1.4 0s.4 1 0 1.4C20.1 36.3 20.6 36 20 36z" opacity="1" data-original="url(#g)"></path><path fill="url(#h)" d="M30 56H10c-.6 0-1-.4-1-1s.4-1 1-1h20c.6 0 1 .4 1 1s-.4 1-1 1z" opacity="1" data-original="url(#h)"></path><path fill="url(#i)" d="M58 49H46c-.6 0-1-.4-1-1v-4c0-.6.4-1 1-1h12c.6 0 1 .4 1 1v4c0 .6-.4 1-1 1z" opacity="1" data-original="url(#i)"></path></g></svg>