<svg xmlns="http://www.w3.org/2000/svg" version="1.1" xmlns:xlink="http://www.w3.org/1999/xlink" width="512" height="512" x="0" y="0" viewBox="0 0 512 512" style="enable-background:new 0 0 512 512" xml:space="preserve" class=""><g><circle cx="256" cy="256" r="256" fill="#ff6c52" opacity="1" data-original="#ff6c52"></circle><path fill="#f92814" d="m20.812 268.621 243.254 243.254C401.719 507.614 512 394.686 512 256c0-21.306-2.603-42.003-7.508-61.793l-63.083-63.083-356.961 98.169z" opacity="1" data-original="#f92814"></path><path fill="#ffffff" d="M44.921 253.622 154.387 376.12h287.022V131.124H154.387zm88.183 0c0 13.436-10.893 24.328-24.329 24.328-13.435 0-24.328-10.892-24.328-24.328s10.893-24.328 24.328-24.328c13.437-.001 24.329 10.892 24.329 24.328z" opacity="1" data-original="#ffffff"></path><path fill="#e9edf5" d="M132.99 255.96c-1.177 12.339-11.567 21.989-24.215 21.989-12.646 0-23.036-9.65-24.213-21.989H47.011l107.376 120.159h287.022V255.96z" opacity="1" data-original="#e9edf5"></path><path fill="#414952" d="M126.479 304.944c0-12.465 9.394-21.184 21.92-21.184s21.859 8.719 21.859 21.184c0 12.464-9.333 21.183-21.859 21.183-12.525-.001-21.92-8.72-21.92-21.183zm33.035 0c0-6.693-4.36-11.851-11.114-11.851-6.815 0-11.175 5.157-11.175 11.851 0 6.631 4.359 11.851 11.175 11.851 6.753-.001 11.114-5.221 11.114-11.851zM198.445 325.39l-6.877-13.754h-5.403v13.754h-10.561v-40.955h20.509c9.087 0 14.245 6.017 14.245 13.632 0 7.122-4.359 10.929-8.167 12.28l8.351 15.043zm1.167-27.385c0-2.764-2.334-4.359-5.097-4.359h-8.351v8.78h8.351c2.763 0 5.097-1.535 5.097-4.421zM216.193 325.39v-40.955h10.561v40.955zM232.036 304.944c0-13.018 9.946-21.184 22.166-21.184 9.148 0 14.675 4.85 17.499 9.946l-8.842 4.605c-1.535-2.701-4.666-5.219-8.657-5.219-6.693 0-11.421 5.157-11.421 11.851 0 6.692 4.728 11.851 11.421 11.851 3.009 0 6.078-1.228 7.552-2.457v-3.192h-9.21v-9.272h19.771v16.272c-4.421 4.851-10.377 7.981-18.113 7.981-12.22 0-22.166-8.166-22.166-21.182zM278.52 325.39v-40.955h10.562v40.955zM324.327 325.39l-17.315-23.701v23.701h-10.56v-40.955h10.867l16.579 22.535v-22.535h10.622v40.955zM369.706 325.39l-2.026-5.895h-16.148l-2.026 5.895h-11.974l15.412-40.955h13.263l15.474 40.955zm-10.132-30.517-5.219 15.412h10.438zM384.691 325.39v-40.955h10.561v31.745h16.455v9.21z" opacity="1" data-original="#414952"></path><path fill="#636978" d="M150.444 250.54v-54.777l-13.725 13.848-12.01-12.622 28.553-28.185h18.259v81.736zM181.94 209.734c0-21.568 11.151-42.155 35.047-42.155s35.048 20.587 35.048 42.155c0 21.567-11.151 42.277-35.048 42.277-23.895 0-35.047-20.71-35.047-42.277zm48.772 0c0-14.46-3.921-23.528-13.725-23.528s-13.725 9.068-13.725 23.528 3.921 23.65 13.725 23.65 13.725-9.191 13.725-23.65zM258.288 209.734c0-21.568 11.151-42.155 35.047-42.155s35.048 20.587 35.048 42.155c0 21.567-11.151 42.277-35.048 42.277-23.895 0-35.047-20.71-35.047-42.277zm48.772 0c0-14.46-3.921-23.528-13.725-23.528s-13.725 9.068-13.725 23.528 3.921 23.65 13.725 23.65 13.725-9.191 13.725-23.65zM334.268 188.165c0-11.519 8.333-20.587 21.2-20.587 13.112 0 21.567 9.068 21.567 20.587 0 11.397-8.455 20.343-21.567 20.343-12.867 0-21.2-8.945-21.2-20.343zm29.655 0c0-6.127-3.676-9.312-8.455-9.312-4.656 0-8.211 3.186-8.211 9.312 0 5.883 3.555 9.068 8.211 9.068 4.779.001 8.455-3.185 8.455-9.068zM347.38 250.54l52.203-81.736h10.661l-52.325 81.736zm33.087-18.872c0-11.519 8.333-20.587 21.2-20.587 12.989 0 21.444 9.068 21.444 20.587 0 11.396-8.455 20.343-21.444 20.343-12.867 0-21.2-8.946-21.2-20.343zm29.655 0c0-6.127-3.677-9.312-8.455-9.312-4.779 0-8.211 3.186-8.211 9.312 0 6.005 3.432 9.068 8.211 9.068 4.778 0 8.455-3.063 8.455-9.068zM20.812 238.621h89.267v30H20.812z" opacity="1" data-original="#636978"></path><path fill="#414952" d="M20.812 255.96h89.267v12.661H20.812z" opacity="1" data-original="#414952"></path></g></svg>