<svg xmlns="http://www.w3.org/2000/svg" version="1.1" xmlns:xlink="http://www.w3.org/1999/xlink" width="512" height="512" x="0" y="0" viewBox="0 0 64 64" style="enable-background:new 0 0 512 512" xml:space="preserve" class=""><g><path d="M50.4 23.1 48 20.7c-.3-.3-.5-.7-.5-1.1V17c0-3.1-2.5-5.6-5.6-5.6h-2.6c-.4 0-.8-.2-1.1-.5l-2.3-2.3c-2.2-2.2-5.7-2.2-7.9 0L25.7 11c-.3.3-.7.5-1.1.5H22c-3.1 0-5.6 2.5-5.6 5.6v2.6c0 .4-.2.8-.5 1.1l-2.3 2.3c-2.2 2.2-2.2 5.7 0 7.9l2.3 2.3c.3.3.5.7.5 1.1V37c0 3.1 2.5 5.6 5.6 5.6v11.1c0 1.5.8 2.9 2.1 3.7s2.9.9 4.2.2l3.7-1.9 3.7 1.9c.6.3 1.3.5 1.9.5.8 0 1.6-.2 2.3-.7 1.3-.8 2.1-2.2 2.1-3.7V42.6c3.1 0 5.6-2.5 5.6-5.6v-2.6c0-.4.2-.8.5-1.1l2.3-2.3c2.1-2.2 2.1-5.8 0-7.9zM37.8 53.9c-.1.1-.2.1-.3 0l-4.6-2.3c-.6-.3-1.2-.3-1.8 0L26.5 54c-.1.1-.2.1-.3 0s-.2-.2-.2-.3V43.3l2.1 2.1c1.1 1.1 2.5 1.6 3.9 1.6s2.9-.5 3.9-1.6l2.1-2.1v10.3c0 .2-.1.3-.2.3zm9.7-25.8-2.3 2.3c-1.1 1.1-1.6 2.5-1.6 3.9V37c0 .9-.7 1.6-1.6 1.6h-2.6c-1.5 0-2.9.6-3.9 1.6l-2.3 2.3c-.6.6-1.6.6-2.2 0l-2.3-2.3c-1.1-1.1-2.5-1.6-3.9-1.6H22c-.9 0-1.6-.7-1.6-1.6v-2.6c0-1.5-.6-2.9-1.6-3.9l-2.3-2.3c-.3-.4-.5-.8-.5-1.2s.2-.8.5-1.1l2.3-2.3c1.1-1.1 1.6-2.5 1.6-3.9V17c0-.9.7-1.6 1.6-1.6h2.6c1.5 0 2.9-.6 3.9-1.6l2.3-2.3c.6-.6 1.6-.6 2.2 0l2.3 2.3c1.1 1.1 2.5 1.6 3.9 1.6H42c.9 0 1.6.7 1.6 1.6v2.6c0 1.5.6 2.9 1.6 3.9l2.3 2.3c.3.3.5.7.5 1.1s-.2.9-.5 1.2z" fill="#000000" opacity="1" data-original="#000000"></path><path d="M38.5 22.7 30 31.2l-4.5-4.5c-.8-.8-2-.8-2.8 0s-.8 2 0 2.8l6 5.9c.3.4.8.6 1.3.6s1-.2 1.4-.6l9.9-9.9c.8-.8.8-2 0-2.8-.7-.8-2-.8-2.8 0z" fill="#000000" opacity="1" data-original="#000000"></path></g></svg>