<svg xmlns="http://www.w3.org/2000/svg" version="1.1" xmlns:xlink="http://www.w3.org/1999/xlink" width="512" height="512" x="0" y="0" viewBox="0 0 591.604 591" style="enable-background:new 0 0 512 512" xml:space="preserve" class=""><g><path d="M555.879 168.52 449.105 61.543V490.23H592V255.38a122.5 122.5 0 0 0-36.121-86.86Zm0 0" style="stroke:none;fill-rule:nonzero;fill-opacity:1;" fill="#ffb782" data-original="#ffb782"></path><path d="M83.457 412.117 2.738 202.57c-8.101-21.035 2.38-44.664 23.426-52.77L407.156 3.048c21.035-8.102 44.664 2.379 52.766 23.426L540.64 236.02c8.101 21.035-2.38 44.664-23.426 52.77l-380.98 146.753c-21.048 8.102-44.665-2.39-52.778-23.426Zm0 0" style="stroke:none;fill-rule:nonzero;fill-opacity:1;" fill="#de4c3c" data-original="#de4c3c"></path><path d="M489.012 101.96 32.195 279.032l30.418 78.961L519.45 181.004Zm0 0" style="stroke:none;fill-rule:nonzero;fill-opacity:1;" fill="#7a4930" data-original="#7a4930"></path><path d="M.004 265.68V41.129C.004 18.582 18.285.3 40.832.3h408.273c22.547 0 40.829 18.281 40.829 40.828v224.55c0 22.548-18.282 40.829-40.829 40.829H40.832c-22.547 0-40.828-18.281-40.828-40.828Zm0 0" style="stroke:none;fill-rule:nonzero;fill-opacity:1;" fill="#4398d1" data-original="#4398d1"></path><path d="M449.105.3h-43.378L99.52 306.509h349.585c22.547 0 40.829-18.281 40.829-40.828V41.129C489.934 18.582 471.652.3 449.105.3Zm0 0" style="stroke:none;fill-rule:nonzero;fill-opacity:1;" fill="#3e8cc7" data-original="#3e8cc7"></path><path d="M40.832 163.61H81.66v20.413H40.832ZM40.832 224.852H81.66v20.414H40.832ZM224.555 224.852h40.828v20.414h-40.828ZM102.074 163.61h40.824v20.413h-40.824ZM163.313 163.61h40.828v20.413h-40.828ZM224.555 163.61h40.828v20.413h-40.828ZM418.484 41.129h20.414V71.75h-20.414ZM377.656 41.129h20.414V71.75h-20.414ZM336.828 41.129h20.414V71.75h-20.414ZM296.004 41.129h20.41V71.75h-20.41Zm0 0" style="stroke:none;fill-rule:nonzero;fill-opacity:1;" fill="#5eb3d1" data-original="#5eb3d1"></path><path d="M408.277 490.23H592v102.067H408.277Zm0 0" style="stroke:none;fill-rule:nonzero;fill-opacity:1;" fill="#88b337" data-original="#88b337"></path><path d="M378.32 184.688c-17.312-17.25-45.328-17.2-62.578.113-16.68 16.738-17.258 43.633-1.316 61.078l83.644 91.25c-25.14 44-24.066 98.258 2.785 141.23l7.422 11.871h132.688V347.336Zm0 0" style="stroke:none;fill-rule:nonzero;fill-opacity:1;" fill="#ffb782" data-original="#ffb782"></path><path d="M438.898 520.852h20.414v20.414h-20.414Zm0 0" style="stroke:none;fill-rule:nonzero;fill-opacity:1;" fill="#6b962a" data-original="#6b962a"></path><path d="M40.832 106.453V57.461c0-9.023 7.309-16.332 16.332-16.332h48.992c9.024 0 16.328 7.309 16.328 16.332v48.992c0 9.024-7.304 16.332-16.328 16.332H57.164c-9.023 0-16.332-7.308-16.332-16.332Zm0 0" style="stroke:none;fill-rule:nonzero;fill-opacity:1;" fill="#fdb62f" data-original="#fdb62f"></path><path d="M40.832 71.75h30.621v20.414H40.832ZM91.867 71.75h30.617v20.414H91.867Zm0 0" style="stroke:none;fill-rule:nonzero;fill-opacity:1;" fill="#fd7b2f" data-original="#fd7b2f"></path><path d="M530.758 347.336a10.187 10.187 0 0 1-7.215-2.992l-40.828-40.828c-3.918-4.051-3.805-10.512.258-14.434 3.96-3.816 10.226-3.816 14.175 0l40.829 40.828c3.98 3.992 3.98 10.453 0 14.434a10.21 10.21 0 0 1-7.22 2.992Zm0 0" style="stroke:none;fill-rule:nonzero;fill-opacity:1;" fill="#f2a46f" data-original="#f2a46f"></path></g></svg>