<svg xmlns="http://www.w3.org/2000/svg" version="1.1" xmlns:xlink="http://www.w3.org/1999/xlink" width="512" height="512" x="0" y="0" viewBox="0 0 773.6 1000" style="enable-background:new 0 0 512 512" xml:space="preserve" class=""><g><path fill="#e1e1e1" d="M386.4 187.8H94.3c-49.8 0-40.7-17.8 43.4-25.6-24-69.5 25.8-109.8 87.4-82.8 23.7-87.8 162.1-91.4 174.8 21 54-15.1 75.1 34.2 57.4 67 64.2 0 114 21.3-2.5 21.3-53.2-.1-68.4-.9-68.4-.9zM638.8 304.4H495.2c-48.9 0-80.3-10.4-6.3-20.3-15.7-52 57.6-88.8 94-32 15.3-22.7 70.1-14.2 55.9 33.8 65 4.6 75.8 18.5 0 18.5z" opacity="1" data-original="#e1e1e1"></path><path fill="#c6c5c4" d="M771.2 985.2c0 8.2-6.6 14.8-14.8 14.8H14.8C6.6 1000 0 993.4 0 985.2c0-8.2 6.6-14.8 14.8-14.8h741.6c8.2 0 14.8 6.6 14.8 14.8z" opacity="1" data-original="#c6c5c4"></path><path fill="#b89067" d="M621.1 391.4h134.3v177H621.1z" opacity="1" data-original="#b89067"></path><path fill="#d6b997" d="M515.5 391.4h105.6v177H515.5z" opacity="1" data-original="#d6b997"></path><path fill="#95673c" d="M670.5 391.4h29.7v49.3h-29.7z" opacity="1" data-original="#95673c"></path><path fill="#1f4199" d="M423.8 222.5s46.9-9.2 61.4 35.6 37.6 163.4 45 202.8c-70.5 28.5-124.1 16.3-139.7 11.5l-25.6-120s-108.6 86.4-161.6 100c-6.1-10.8-3.7-16.4-26.1-23.2 151.6-108.9 163.7-167.6 208.5-194.4 21.6-13.1 38.1-12.3 38.1-12.3z" opacity="1" data-original="#1f4199"></path><path fill="#6d3a2c" d="m146.3 794.2 9.2-122.9c2.7-38.6 9.9-59.4 36.5-57.5 7.9.6 1.1 21.8-2 21.5-15-1.6-14.5 37.5-14.5 37.5L166 798.6c2.7 3.9 4.4 9.1 4.4 14.9 0 12.1-7.4 21.9-16.4 21.9-9.1 0-16.4-9.8-16.4-21.9 0-8.4 3.5-15.6 8.7-19.3zM464.6 564.4l108.2 255.2 17.9-9.1-108.3-255.2z" opacity="1" data-original="#6d3a2c"></path><path fill="#b89067" d="M552.3 809.3c0 15.1 12.3 27.4 27.4 27.4s27.4-12.3 27.4-27.4-12.3-27.4-27.4-27.4-27.4 12.3-27.4 27.4z" opacity="1" data-original="#b89067"></path><path fill="#6d3a2c" d="M582.8 822H641v-20h-58.2c-18.4 0-17.1 20 0 20z" opacity="1" data-original="#6d3a2c"></path><path fill="#b89067" d="M159.5 824.8h58.2v-20h-58.2c-18.4 0-17.1 20 0 20z" opacity="1" data-original="#b89067"></path><path fill="#fcc082" d="M203.3 449.5s-13.6 26.6-36.3 26.6c-22.8 0-36.3-1-38.3-18.9-1.9-17.9-3.4-28.6 10.2-28.6s24.6.5 38.3.5c23.5 0 26.1 20.4 26.1 20.4z" opacity="1" data-original="#fcc082"></path><path fill="#4683c4" d="M172 463.8c0 2.3 2.2 4.2 4.8 4.2h121c2.7 0 4.8-1.9 4.8-4.2v-12.5c0-2.3-2.2-4.2-4.8-4.2h-121c-2.7 0-4.8 1.9-4.8 4.2z" opacity="1" data-original="#4683c4"></path><path d="M393.5 546.3s156.8 31.8 162.6-24.1c4-38.6-24.2-38.3-24.2-38.3s-158.8-4-138.4 62.4zM337.7 703.7s-29.4 18.7-16.3 40.3c4.1 6.8 4.5 7.4 4.5 7.4l63.6-38.7s-11.4-18.8-18.1-29.7c-19.1 11.8-33.7 20.7-33.7 20.7z" fill="#000000" opacity="1" data-original="#000000"></path><path fill="#ffffff" d="m321.78 742.026 61.489-37.44 4.42 7.259-61.488 37.44z" opacity="1" data-original="#ffffff"></path><path fill="#1f4199" d="M530.2 460.9s10.3 36.2-20.2 60.3c-37.1 29.2-207.2 10.4-207.2 10.4l70.5 151.5-39 23.2S222.4 536 222.4 501.7c0-38.8 168.2-29.2 168.2-29.2s58.3 18.6 139.6-11.6z" opacity="1" data-original="#1f4199"></path><path fill="#4683c4" d="M337.4 757.7c1.4 2.3 4.4 3 6.7 1.6l57.9-35.2c2.3-1.4 3-4.4 1.6-6.7l-3.3-5.5c-1.4-2.3-4.4-3-6.7-1.6l-57.9 35.2c-2.3 1.4-3 4.4-1.6 6.7z" opacity="1" data-original="#4683c4"></path><path fill="#4683c4" d="M409.1 815.5c7.5 10.7 19.8 1.5 13.7-8.7s-43.6-68.9-43.6-68.9l-14.2 8.7c0-.1 36.6 58.2 44.1 68.9z" opacity="1" data-original="#4683c4"></path><path fill="#d6b997" d="M474.1 813.5c0 86 54.1 155.6 120.7 155.6 66.7 0 120.7-69.7 120.7-155.6s-54.1-155.6-120.7-155.6c-66.7-.1-120.7 69.6-120.7 155.6zm14.6 0c0-75.6 47.5-136.8 106.1-136.8S700.9 738 700.9 813.5c0 75.6-47.5 136.8-106.1 136.8s-106.1-61.2-106.1-136.8z" opacity="1" data-original="#d6b997"></path><path d="M458.6 812c0 95.7 61 173.2 136.2 173.2S731 907.6 731 812c0-95.7-61-173.2-136.2-173.2S458.6 716.3 458.6 812zm20 1.5c0-82.7 52-149.8 116.2-149.8S711 730.8 711 813.5s-52 149.8-116.2 149.8-116.2-67.1-116.2-149.8z" fill="#000000" opacity="1" data-original="#000000"></path><path fill="#6d3a2c" d="M496.1 588.4h263.4c19.1 0 18.3-20 0-20H496.1z" opacity="1" data-original="#6d3a2c"></path><path fill="#f8a257" d="M390.2 218.6s1.6 9.1 3.5 18.6c5.9 11.2 21.5 7.7 21.5 7.7s14.7-5.4 16.5-19.3c-3.7-8.9-7.3-17.5-7.3-17.5z" opacity="1" data-original="#f8a257"></path><path fill="#fcc082" d="M404.1 219.3c-78.4 0-71.3-58.4-71.3-58.4s-22 1.6-22-27.8 22-21 22-21V83s-.6-28.1 71.3-28.1h2.6c72 0 71.3 28.1 71.3 28.1v29.1s22-8.4 22 21-22 27.8-22 27.8 3.9 58.4-71.3 58.4z" opacity="1" data-original="#fcc082"></path><path fill="#8e453d" d="M485.2 81.4V111s-3.9-.5-7.1 1.1c-6.5-9.7-8.4-30.7-8.4-30.7z" opacity="1" data-original="#8e453d"></path><path d="M435.1 133.1c0 4.1 3.3 7.4 7.4 7.4 4.1 0 7.4-3.3 7.4-7.4v-5.8c0-4.1-3.3-7.4-7.4-7.4-4.1 0-7.4 3.3-7.4 7.4zM456.8 103.4s-11.1-5.5-24.9 1.6c-4 2.2-6.1-1.8-2.6-4 2-1.3 14.1-7.1 28.5.1 1.2 1.1.1 2.8-1 2.3z" fill="#000000" opacity="1" data-original="#000000"></path><path fill="#8e453d" d="M325.7 81.4V111s3.9-.5 7.1 1.1c6.5-9.7 8.4-30.7 8.4-30.7z" opacity="1" data-original="#8e453d"></path><path d="M375.7 133.1c0 4.1-3.3 7.4-7.4 7.4-4.1 0-7.4-3.3-7.4-7.4v-5.8c0-4.1 3.3-7.4 7.4-7.4 4.1 0 7.4 3.3 7.4 7.4zM354.1 103.4s11.2-5.5 24.9 1.6c4 2.2 6.1-1.8 2.6-4-2-1.3-14.1-7.1-28.5.1-1.3 1.1-.1 2.8 1 2.3z" fill="#000000" opacity="1" data-original="#000000"></path><path fill="#f8a257" d="M477.4 147.2v-20.7s12.2-5.2 12.2 7.2c0 11.2-9.1 13.5-12.2 13.5zM333.3 147.2v-20.7s-12.2-5.2-12.2 7.2c0 11.2 9.2 13.5 12.2 13.5z" opacity="1" data-original="#f8a257"></path><path fill="#8e453d" d="M381.5 165.5h47.8s2.3 28.4-23.9 28.4c-26.2-.1-23.9-28.4-23.9-28.4z" opacity="1" data-original="#8e453d"></path><path fill="#ffffff" d="M381.5 165.5s-.5 7.1 3.6 7.1H426c4.1 0 3.3-7.1 3.3-7.1z" opacity="1" data-original="#ffffff"></path><path fill="#f05d59" d="M417.4 191.2s-4.3 2.7-12.3 2.7c-8.1 0-11.7-2.7-11.7-2.7s3.1-7.1 12-7.1 12 7.1 12 7.1z" opacity="1" data-original="#f05d59"></path><path fill="#1f4199" d="M305.3 436s73.5-41.2 122.8-179.1c3.9-10.9 6.1-26.8 3.7-31.3 12.7-3.3 47.8-5.8 58.1 48.4-11.2 91.3-154 183.6-154 183.6s-17.3 6.1-30.6-21.6z" opacity="1" data-original="#1f4199"></path><path fill="#d6b997" d="M41 813.5c0 86 54.1 155.6 120.7 155.6 66.7 0 120.7-69.7 120.7-155.6s-54.1-155.6-120.7-155.6C95.1 657.8 41 727.5 41 813.5zm14.6 0c0-75.6 47.5-136.8 106.1-136.8S267.8 738 267.8 813.5c0 75.6-47.5 136.8-106.1 136.8S55.6 889.1 55.6 813.5z" opacity="1" data-original="#d6b997"></path><path d="M25.5 812c0 95.7 61 173.2 136.2 173.2C237 985.2 298 907.7 298 812s-61-173.2-136.2-173.2c-75.3 0-136.3 77.5-136.3 173.2zm20 1.5c0-82.7 52-149.8 116.2-149.8s116.2 67.1 116.2 149.8-52 149.8-116.2 149.8S45.5 896.2 45.5 813.5z" fill="#000000" opacity="1" data-original="#000000"></path><path fill="#fcc082" d="M335.8 452.7c-6.9 4.6-7 4.6-7 4.6s-13.6 26.6-36.3 26.6c-22.8 0-36.3-1-38.3-18.9-1.9-17.9-3.4-28.6 10.2-28.6s38.3.5 38.3.5 27.7-6.6 33.1 15.8z" opacity="1" data-original="#fcc082"></path><path fill="#4683c4" d="m469.8 917.7 13.6-8.7-62.5-103-13.6 8.7z" opacity="1" data-original="#4683c4"></path><path d="M415.5 851.4v-75.7l227.4 8.2v51.9zm4.5-71v66.2l218.4-15v-43.3z" fill="#000000" opacity="1" data-original="#000000"></path><path fill="#4683c4" d="M311 463.8c0 2.3 2.2 4.2 4.8 4.2h10.9c2.7 0 4.8-1.9 4.8-4.2v-12.5c0-2.3-2.2-4.2-4.8-4.2h-10.9c-2.7 0-4.8 1.9-4.8 4.2z" opacity="1" data-original="#4683c4"></path><path d="M121.1 706.7c1-.7 2.4-.4 3.1.6s.4 2.4-.6 3.1C94.2 730.4 76 769.9 76 813.5c0 18.6 3.2 36.4 9.6 52.8 6.1 15.6 14.9 29.5 25.6 40.1.9.9.9 2.3 0 3.2-.4.4-1 .7-1.6.7s-1.1-.2-1.6-.6c-11.1-11-20.3-25.4-26.6-41.6-6.6-17-9.9-35.3-9.9-54.5 0-45.2 19-86.1 49.6-106.9zM251.1 813.5c0-20.5-4.1-40.7-11.9-58.3-7.5-17-18.3-31.4-31.1-41.4-1-.8-1.1-2.2-.4-3.1.8-1 2.2-1.1 3.1-.4 13.4 10.5 24.6 25.4 32.4 43.2 8 18.2 12.3 39 12.3 60.1 0 33.4-10.7 65.6-29.5 88.3-.4.5-1.1.8-1.7.8-.5 0-1-.2-1.4-.5-1-.8-1.1-2.2-.3-3.1 18.2-22.1 28.5-53.2 28.5-85.6z" fill="#000000" opacity="1" data-original="#000000"></path><path d="M230.5 813.5c0-34.8-15.5-66.5-39.4-80.9-1.1-.6-1.4-2-.8-3.1s2-1.4 3.1-.8c25.3 15.1 41.6 48.4 41.6 84.7 0 32.3-12.5 61.8-33.4 79-.4.3-.9.5-1.4.5-.6 0-1.3-.3-1.7-.8-.8-1-.6-2.4.3-3.1 19.8-16.3 31.7-44.6 31.7-75.5zM135.6 727.7c1.1-.6 2.4-.2 3 .9s.2 2.4-.9 3c-25 13.9-41.2 46-41.2 81.9 0 30.4 11.6 58.4 31 74.8.9.8 1.1 2.2.3 3.2-.4.5-1.1.8-1.7.8-.5 0-1-.2-1.4-.5-20.4-17.3-32.6-46.5-32.6-78.2 0-37.6 17.1-71.3 43.5-85.9z" fill="#000000" opacity="1" data-original="#000000"></path><path d="M183.8 866.9c15.5-10.3 25.1-31 25.1-54 0-20.2-7.6-39-20.3-50.3-.9-.8-1-2.2-.2-3.2.8-.9 2.2-1 3.2-.2 13.6 12.1 21.8 32.1 21.8 53.6 0 24.5-10.4 46.6-27.1 57.8-.4.3-.8.4-1.2.4-.7 0-1.4-.4-1.9-1-.7-1-.4-2.4.6-3.1zM135.4 759.2c.9-.8 2.3-.7 3.2.2.8.9.7 2.3-.2 3.2-12.7 11.3-20.3 30.1-20.3 50.3 0 22.2 9.2 42.6 23.9 53.2 1 .7 1.2 2.1.5 3.1-.4.6-1.1.9-1.8.9-.5 0-.9-.1-1.3-.4-15.9-11.4-25.8-33.2-25.8-56.8 0-21.5 8.2-41.6 21.8-53.7zM682.4 813.5c0-20.5-4.1-40.7-11.9-58.3-7.5-17-18.3-31.4-31.1-41.4-1-.8-1.1-2.2-.4-3.1.8-1 2.2-1.1 3.1-.4 13.4 10.5 24.6 25.4 32.4 43.2 8 18.2 12.3 39 12.3 60.1 0 33.4-10.7 65.6-29.4 88.3-.4.5-1.1.8-1.7.8-.5 0-1-.2-1.4-.5-1-.8-1.1-2.2-.3-3.1 18-22.1 28.4-53.2 28.4-85.6zM552.3 706.7c1-.7 2.4-.4 3.1.6s.4 2.4-.6 3.1c-29.4 20-47.6 59.5-47.6 103.1 0 18.6 3.2 36.4 9.6 52.8 6.1 15.6 14.9 29.5 25.6 40.1.9.9.9 2.3 0 3.2-.4.4-1 .7-1.6.7s-1.1-.2-1.6-.6c-11.1-11-20.3-25.4-26.6-41.6-6.6-17-9.9-35.3-9.9-54.5 0-45.2 19.1-86.1 49.6-106.9z" fill="#000000" opacity="1" data-original="#000000"></path><path d="M661.7 813.5c0-34.8-15.5-66.5-39.4-80.9-1.1-.6-1.4-2-.8-3.1s2-1.4 3.1-.8c25.3 15.1 41.6 48.4 41.6 84.7 0 32.3-12.5 61.8-33.4 79-.4.3-.9.5-1.4.5-.6 0-1.3-.3-1.7-.8-.8-1-.6-2.4.3-3.1 19.8-16.3 31.7-44.6 31.7-75.5zM566.9 727.7c1.1-.6 2.4-.2 3 .9s.2 2.4-.9 3c-25 13.9-41.2 46-41.2 81.9 0 30.4 11.6 58.4 31 74.8.9.8 1.1 2.2.3 3.2-.4.5-1.1.8-1.7.8-.5 0-1-.2-1.4-.5-20.4-17.3-32.6-46.5-32.6-78.2 0-37.6 17.1-71.3 43.5-85.9z" fill="#000000" opacity="1" data-original="#000000"></path><path d="M615.1 866.9c15.5-10.3 25.1-31 25.1-54 0-20.2-7.6-39-20.3-50.3-.9-.8-1-2.2-.2-3.2.8-.9 2.2-1 3.2-.2 13.6 12.1 21.8 32.1 21.8 53.6 0 24.5-10.4 46.6-27.1 57.8-.4.3-.8.4-1.2.4-.7 0-1.4-.4-1.9-1-.7-1-.4-2.4.6-3.1zM566.7 759.2c.9-.8 2.3-.7 3.2.2.8.9.7 2.3-.2 3.2-12.7 11.3-20.3 30.1-20.3 50.3 0 22.2 9.2 42.6 23.9 53.2 1 .7 1.2 2.1.5 3.1-.4.6-1.1.9-1.8.9-.5 0-.9-.1-1.3-.4-15.9-11.4-25.8-33.2-25.8-56.8 0-21.5 8.2-41.6 21.8-53.7z" fill="#000000" opacity="1" data-original="#000000"></path><path fill="#6d3a2c" d="m673.6 588.4-43.4 227.8 19.7 3.8L694 588.4z" opacity="1" data-original="#6d3a2c"></path><path fill="#4683c4" d="M437.6 913.1c0 2.7 2.2 4.8 4.8 4.8h67.8c2.7 0 4.8-2.2 4.8-4.8v-6.4c0-2.7-2.2-4.8-4.8-4.8h-67.8c-2.7 0-4.8 2.2-4.8 4.8z" opacity="1" data-original="#4683c4"></path><path fill="#6d3a2c" d="M195.7 812.8c0 12.1 7.4 21.9 16.4 21.9 9.1 0 16.4-9.8 16.4-21.9 0-6.1-1.9-11.6-4.9-15.6l10.9-120.1c3.8-38.5-3.8-58.9-23.7-61.9l1.5-15L410.8 822h196v-20H430.6l48.8-221.3L627.5 802l16.6-11.1-158.8-237.3 2.9-13.3-21.6.8-2.5 11.5H216.9l8.3-84.6h-20.3l-14.1 145.8-2.7 21.3 20.6 2c10.4.8 5.9 38 5.9 38l-10.7 118.6c-4.9 4-8.2 11-8.2 19.1zm19.2-239.6.1-.6h244.8L412 793.4z" opacity="1" data-original="#6d3a2c"></path><path fill="#4683c4" d="M124.9 468c-2.7 0-4.8-1.9-4.8-4.2v-12.5c0-2.3 2.2-4.2 4.8-4.2h2.8s.7 15 4.8 20.9h-7.6z" opacity="1" data-original="#4683c4"></path><path d="M474 867.2s-34.9.7-34.9 25.9v8.7h74.4v-34.7c-22.5.1-39.5.1-39.5.1z" fill="#000000" opacity="1" data-original="#000000"></path><path fill="#ffffff" d="M440.3 891.8h72v8.5h-72z" opacity="1" data-original="#ffffff"></path><path fill="#1f4199" d="M470.5 867.5s-28.3-232.2-30.9-331.6c49.7-19.3 92.2-56.8 92.2-56.8s-17.6 173.8-18.3 388c-25.1.1-43 .4-43 .4z" opacity="1" data-original="#1f4199"></path><g fill="#b89067"><path d="M417.8 772.7c22.5 0 40.8 18.3 40.8 40.8s-18.3 40.8-40.8 40.8S377 836 377 813.5s18.2-40.8 40.8-40.8zM640.7 781.9c15.1 0 27.4 12.3 27.4 27.4s-12.3 27.4-27.4 27.4-27.4-12.3-27.4-27.4 12.3-27.4 27.4-27.4z" fill="#b89067" opacity="1" data-original="#b89067"></path></g><path fill="#1f4199" d="M488.3 50c-4.4-5.4-39.8-50-82.8-50s-78.4 44.6-82.8 50c-10.6 13-2.7 24.5 3.1 23.3s7.3-2.1 7.3-2.1H478s1.5.9 7.3 2.1 13.6-10.3 3-23.3z" opacity="1" data-original="#1f4199"></path><path d="M404.1 73.4c-58.8 0-71.2 8.1-71.2 8.1s18.9 16.1 72.4 16.1c53.6 0 72.4-16.1 72.4-16.1s-12.4-8.1-71.2-8.1z" fill="#000000" opacity="1" data-original="#000000"></path><path fill="#faac18" d="M415.2 33.7c0 8.7-4.4 15.8-9.8 15.8s-9.8-7.1-9.8-15.8 4.4-15.8 9.8-15.8 9.8 7.1 9.8 15.8z" opacity="1" data-original="#faac18"></path><path fill="#242564" d="M406.8 58.9c-50.5 0-81.1 14.4-81.1 14.4v12.2s18.2-9.8 81-9.8 78.4 9.8 78.4 9.8V73.3c.1 0-27.8-14.4-78.3-14.4z" opacity="1" data-original="#242564"></path><path fill="#faac18" d="M327 86.7c-.5 0-1-.3-1.1-.9-.2-.6.2-1.3.8-1.5.3-.1 34.7-9.8 80.9-9.8 46.3 0 76.4 9.7 76.7 9.8.6.2 1 .9.8 1.5s-.9 1-1.5.8c-.3-.1-30.1-9.7-75.9-9.7-45.9 0-79.9 9.6-80.3 9.7-.2 0-.3.1-.4.1z" opacity="1" data-original="#faac18"></path><path fill="#9fd2f1" d="M364.8 353.3c-.4 0-.8-.3-.9-.8 0-.1-1.8-12.5-3-28.3-1.1-14.7-2-35.4.3-51 .1-.5.5-.8 1-.8.5.1.8.5.8 1-2.3 15.5-1.4 36.1-.3 50.6 1.2 15.8 3 28.1 3 28.2.1.5-.3.9-.8 1 0 .1 0 .1-.1.1z" opacity="1" data-original="#9fd2f1"></path><path fill="#ffffff" d="m393.7 237.2 1.7 92.7S424 288 430.8 229.5c-15.3 24.2-31.9 14-37.1 7.7z" opacity="1" data-original="#ffffff"></path><path fill="#1a9dd8" d="M431.1 228.2s-11.6 53.2-18.8 70c14.8-34.6 24-50.6 34.9-66.8-4.9-5-9-9.2-18.1-12.1 1.7 4 2.7 7 2 8.9zM391.3 224.1s6.6 13.4 4.2 105.8c-9.2-56.9-16.6-88.4-16.6-88.4s3.8-12 12.4-17.4z" opacity="1" data-original="#1a9dd8"></path><path d="M408.7 244.8s-9.8 5.5-13.2 16.8c5.3 5.6 7.2 6.2 7.2 6.2l-6.8 38.7-.5 23.3s14.9-27.7 18.4-33.4c.7-8.1-.8-28-.8-28l9.4-3.6s-5.3-14.6-13.7-20z" fill="#000000" opacity="1" data-original="#000000"></path><path fill="#a77056" d="M373.8 243.1s7.3 50.6 19.9 89.9c-10.3 16.8-12.6 19.5-12.6 19.5s-19-76.4-19.8-97.7c-1.5-16.2 13.3-16.8 14.9-13.6-1.2 1-2.4 1.9-2.4 1.9z" opacity="1" data-original="#a77056"></path><path fill="#9fd2f1" d="M381.2 426.1c-.3 0-.5-.1-.7-.3-.3-.4-.2-1 .2-1.3.2-.2 20.4-16 42.8-38.8 20.6-21 47.4-52.4 57.8-82.5.2-.5.7-.7 1.1-.6.5.2.7.7.6 1.1-5.8 16.8-20.6 44.9-58.2 83.2-22.5 22.9-42.7 38.8-42.9 38.9-.3.2-.5.3-.7.3zM369.6 370.9c-.2 0-.4-.1-.5-.2-.4-.3-.5-.9-.2-1.3s32.3-42.5 57.4-105c.2-.5.7-.7 1.2-.5s.7.7.5 1.2c-25.1 62.7-57.3 105-57.6 105.4-.2.3-.5.4-.8.4z" opacity="1" data-original="#9fd2f1"></path><path fill="#90553c" d="M453.3 528.6c0 11.4-9.3 20.7-20.7 20.7-11.4 0-20.7-9.3-20.7-20.7v-71.9c0-11.4 9.3-20.7 20.7-20.7 11.4 0 20.7 9.3 20.7 20.7z" opacity="1" data-original="#90553c"></path><path fill="#a77056" d="m505.2 337.9 20.2 98.1s8.3 13.4 17.9 17c-17.7-52.3-38.1-115.1-38.1-115.1z" opacity="1" data-original="#a77056"></path><path fill="#6d3a2c" d="M528.8 549.3c11.4 0 20.7-9.3 20.7-20.7v-71.9c0-11.4-9.3-20.7-20.7-20.7h-96.2c11.4 0 20.7 9.3 20.7 20.7v71.9c0 11.4-9.3 20.7-20.7 20.7z" opacity="1" data-original="#6d3a2c"></path><path fill="#a77056" d="m404.7 404.9 17.7 52.7h20.3l-22.2-67.7zM503.6 500.9c-20.9 0-33.5-9.6-40.3-17.6-7.4-8.7-9.8-17.3-9.9-17.6-.2-.6.2-1.3.8-1.4.6-.2 1.3.2 1.4.8 0 .1 2.4 8.5 9.5 16.8 9.5 11.1 22.4 16.7 38.5 16.7 16 0 28.2-5.1 36.3-15.3 6-7.6 7.4-15.3 7.4-15.4.1-.6.7-1.1 1.3-1s1.1.7 1 1.3c-.1.3-1.4 8.3-7.8 16.4-5.9 7.4-17.3 16.3-38.2 16.3z" opacity="1" data-original="#a77056"></path><path fill="#faac18" d="M514.6 503c0 5.2-4.2 9.4-9.4 9.4s-9.4-4.2-9.4-9.4v-6.6c0-5.2 4.2-9.4 9.4-9.4s9.4 4.2 9.4 9.4z" opacity="1" data-original="#faac18"></path></g></svg>