<svg xmlns="http://www.w3.org/2000/svg" version="1.1" xmlns:xlink="http://www.w3.org/1999/xlink" width="512" height="512" x="0" y="0" viewBox="0 0 64 64" style="enable-background:new 0 0 512 512" xml:space="preserve" class=""><g><path fill="#febe07" d="M15 32h12a5 5 0 0 0 5-5v-3.067C32 19 28.045 12 26.867 12H15.133C13.955 12 10 19 10 23.933V27a5 5 0 0 0 5 5zM28.77 4.281l-2.09 1.045a.733.733 0 0 1-.915-.216L24.44 3.343a.734.734 0 0 0-1.105-.079l-1.738 1.738a.732.732 0 0 1-1.105-.079l-1.185-1.58a.734.734 0 0 0-1.105-.079l-2.03 2.03a.734.734 0 0 1-.72.187l-3.035-.867a.734.734 0 0 0-.845 1.057L15 12h12l2.775-6.781c.262-.627-.397-1.241-1.005-.938z" opacity="1" data-original="#febe07"></path><path fill="#b18300" d="M27 32a5 5 0 0 0 5-5v-3.067C32 19 28.045 12 26.867 12H15.133c-.668 0 6.36.431 9.867 6 2.677 4.251 2 14 2 14zM28.77 4.281l-1.414.707a21.463 21.463 0 0 1-9.994 5.671l-2.72.68L15 12h12l2.775-6.781c.262-.627-.397-1.241-1.005-.938z" opacity="1" data-original="#b18300"></path><path fill="#5aa2ff" d="M35 4h10v28H35z" opacity="1" data-original="#5aa2ff"></path><path fill="#2b67b3" d="m45 16-4 4-4 4h2v8h6z" opacity="1" data-original="#2b67b3"></path><path fill="#5aa2ff" d="M29.3 16H26v16h9V16zM47 27h4v5h-4z" opacity="1" data-original="#5aa2ff"></path><path fill="#ffe5cf" d="M57.707 30a2.763 2.763 0 0 0-2.471 1.527L55 32l-3 6-7 3a4 4 0 0 0-4-4H26.602A26.84 26.84 0 0 0 11 42v15h23.606c4.832 0 9.566-1.358 13.663-3.919A25.775 25.775 0 0 0 59.994 35.7l.434-2.458A2.763 2.763 0 0 0 57.707 30z" opacity="1" data-original="#ffe5cf"></path><path fill="#cbe6fe" d="M55 24H43v8h4v-5h4v5h4z" opacity="1" data-original="#cbe6fe"></path><path fill="#2b67b3" d="M10 37H4a1 1 0 0 0-1 1v22a1 1 0 0 0 1 1h6a1 1 0 0 0 1-1V38a1 1 0 0 0-1-1z" opacity="1" data-original="#2b67b3"></path><path fill="#b18300" d="m57 24-8-8-4 4-4 4z" opacity="1" data-original="#b18300"></path><path fill="#2b67b3" d="M32 16h3v16h-3z" opacity="1" data-original="#2b67b3"></path><path d="M4 62h6c1.103 0 2-.897 2-2v-2h22.606c5.024 0 9.933-1.408 14.193-4.07a26.825 26.825 0 0 0 12.179-18.056l.434-2.458c.194-1.098-.105-2.218-.822-3.072S58.822 29 57.707 29c-.609 0-1.189.151-1.707.415V25h1a1 1 0 0 0 .707-1.707l-8-8a.999.999 0 0 0-1.414 0L46 17.586V4a1 1 0 0 0-1-1H35a1 1 0 0 0-1 1v11h-4.052c-.761-1.674-1.324-2.653-1.776-3.221l2.527-6.176a1.718 1.718 0 0 0-.418-1.933 1.718 1.718 0 0 0-1.957-.283l-1.891.945-1.191-1.588a1.732 1.732 0 0 0-2.614-.187l-1.521 1.52-.999-1.333a1.732 1.732 0 0 0-2.614-.187l-1.919 1.919-2.884-.824a1.723 1.723 0 0 0-1.829.583 1.727 1.727 0 0 0-.17 1.911l3.024 5.583C11.593 13.647 9 19.036 9 23.933V27c0 3.309 2.691 6 6 6h38.382l-2.112 4.225-5.499 2.357C45.154 37.519 43.261 36 41 36H26.603A27.666 27.666 0 0 0 12 40.146V38c0-1.103-.897-2-2-2H4c-1.103 0-2 .897-2 2v22c0 1.103.897 2 2 2zM15.177 6.443a1.731 1.731 0 0 0 1.702-.441l1.813-1.813 1 1.335a1.737 1.737 0 0 0 2.613.185l1.521-1.52 1.141 1.52a1.729 1.729 0 0 0 2.162.512l1.455-.728L26.328 11h-2.71l1.276-2.553-1.789-.895L21.382 11h-1.753l-1.394-2.9-1.803.867.977 2.033h-1.814l-2.843-5.25zM25 16v15H15c-2.206 0-4-1.794-4-4v-3.067C11 18.58 14.313 13.588 15.261 13h11.327c.162.196.529.722 1.15 2H26a1 1 0 0 0-1 1zm2 1h7v14h-7zm22 .414L54.586 23H43.414zM36 5h8v14.586l-3.707 3.707A1 1 0 0 0 41 25h1v6h-6zm8 20h10v6h-2v-4a1 1 0 0 0-1-1h-4a1 1 0 0 0-1 1v4h-2zm6 6h-2v-3h2zm-23.397 7H41c1.654 0 3 1.346 3 3s-1.346 3-3 3H25v2h16c2.521 0 4.591-1.882 4.93-4.311l6.463-2.77a.993.993 0 0 0 .501-.472l3.236-6.473A1.755 1.755 0 0 1 57.707 31c.522 0 1.015.229 1.351.63s.477.925.386 1.439l-.434 2.458a24.818 24.818 0 0 1-11.271 16.707A24.75 24.75 0 0 1 34.606 56H12V42.538A25.687 25.687 0 0 1 26.603 38zM4 38h6l.001 22H4z" fill="#000000" opacity="1" data-original="#000000"></path><path d="M6 41h2v3H6zM38 7h1v2h-1zM41 7h1v2h-1zM38 11h1v2h-1zM41 11h1v2h-1zM38 15h1v2h-1zM41 15h1v2h-1zM29 19h1v2h-1zM32 19h1v2h-1zM29 23h1v2h-1zM32 23h1v2h-1zM29 27h1v2h-1zM32 27h1v2h-1zM38 19h1v2h-1zM41 19h1v2h-1zM22 18h-1v-1h-2v1h-1a1 1 0 0 0-1 1v3a1 1 0 0 0 1 1h3v1h-4v1a1 1 0 0 0 1 1h1v1h2v-1h1a1 1 0 0 0 1-1v-3a1 1 0 0 0-1-1h-3v-1h4v-1a1 1 0 0 0-1-1zM53 4h2v2h-2zM55 2h2v2h-2zM57 4h2v2h-2zM55 6h2v2h-2zM60 9h2v2h-2zM53 12h2v2h-2zM2 11h2v2H2zM4 9h2v2H4zM6 11h2v2H6zM4 13h2v2H4zM2 19h2v2H2zM6 2h2v2H6z" fill="#000000" opacity="1" data-original="#000000"></path></g></svg>