<svg xmlns="http://www.w3.org/2000/svg" version="1.1" xmlns:xlink="http://www.w3.org/1999/xlink" width="512" height="512" x="0" y="0" viewBox="0 0 512 512" style="enable-background:new 0 0 512 512" xml:space="preserve" class=""><g><linearGradient id="a"><stop offset="0" stop-color="#fea613"></stop><stop offset="1" stop-color="#c4573a"></stop></linearGradient><linearGradient xlink:href="#a" id="h" x1="21.449" x2="318.937" y1="209.11" y2="447.582" gradientUnits="userSpaceOnUse"></linearGradient><linearGradient id="b"><stop offset="0" stop-color="#c4573a" stop-opacity="0"></stop><stop offset=".235" stop-color="#be5539" stop-opacity=".235"></stop><stop offset=".539" stop-color="#ae4e35" stop-opacity=".539"></stop><stop offset=".879" stop-color="#934330" stop-opacity=".879"></stop><stop offset="1" stop-color="#883f2e"></stop></linearGradient><linearGradient xlink:href="#b" id="i" x1="151.455" x2="172.288" y1="270.737" y2="270.737" gradientUnits="userSpaceOnUse"></linearGradient><linearGradient xlink:href="#b" id="j" x1="288.172" x2="346.034" y1="341.126" y2="341.126" gradientUnits="userSpaceOnUse"></linearGradient><linearGradient xlink:href="#b" id="k" x1="72.468" x2="194.415" y1="309.896" y2="460.748" gradientUnits="userSpaceOnUse"></linearGradient><linearGradient xlink:href="#b" id="l" x1="116.739" x2="173.413" y1="313.504" y2="243.999" gradientUnits="userSpaceOnUse"></linearGradient><linearGradient xlink:href="#b" id="m" x1="81.625" x2="74.399" y1="415.475" y2="452.812" gradientUnits="userSpaceOnUse"></linearGradient><linearGradient xlink:href="#b" id="n" x1="-1013.738" x2="-1020.965" y1="415.475" y2="452.812" gradientTransform="matrix(-1 0 0 1 -754.03 0)" gradientUnits="userSpaceOnUse"></linearGradient><linearGradient xlink:href="#a" id="o" x1="169.531" x2="174.047" y1="212.388" y2="272.608" gradientUnits="userSpaceOnUse"></linearGradient><linearGradient xlink:href="#b" id="p" x1="118.812" x2="122.124" y1="215.5" y2="229.351" gradientUnits="userSpaceOnUse"></linearGradient><linearGradient id="c"><stop offset="0" stop-color="#fef0ae"></stop><stop offset="1" stop-color="#fac600"></stop></linearGradient><linearGradient xlink:href="#c" id="q" x1="140.751" x2="164.237" y1="201.716" y2="258.926" gradientUnits="userSpaceOnUse"></linearGradient><linearGradient id="d"><stop offset="0" stop-color="#fe9738" stop-opacity="0"></stop><stop offset="1" stop-color="#fe9738"></stop></linearGradient><linearGradient xlink:href="#d" id="r" x1="101.933" x2="101.933" y1="236.55" y2="249.735" gradientUnits="userSpaceOnUse"></linearGradient><linearGradient xlink:href="#d" id="s" x1="83.723" x2="92.836" y1="273.116" y2="273.116" gradientUnits="userSpaceOnUse"></linearGradient><linearGradient xlink:href="#d" id="t" x1="75.261" x2="73.455" y1="292.639" y2="302.876" gradientUnits="userSpaceOnUse"></linearGradient><linearGradient id="e"><stop offset="0" stop-color="#f5fbff"></stop><stop offset="1" stop-color="#dbd5ef"></stop></linearGradient><linearGradient xlink:href="#e" id="u" x1="31.889" x2="73.798" y1="360.003" y2="432.178" gradientUnits="userSpaceOnUse"></linearGradient><linearGradient id="f"><stop offset="0" stop-color="#dbd5ef" stop-opacity="0"></stop><stop offset=".285" stop-color="#d9d2ee" stop-opacity=".285"></stop><stop offset=".474" stop-color="#d4c9e9" stop-opacity=".474"></stop><stop offset=".635" stop-color="#cbbae2" stop-opacity=".635"></stop><stop offset=".779" stop-color="#bfa5d7" stop-opacity=".78"></stop><stop offset=".913" stop-color="#af8aca" stop-opacity=".913"></stop><stop offset="1" stop-color="#a274bf"></stop></linearGradient><linearGradient xlink:href="#f" id="v" x1="53.04" x2="49.838" y1="404.552" y2="418.521" gradientUnits="userSpaceOnUse"></linearGradient><linearGradient xlink:href="#f" id="w" x1="80.246" x2="91.155" y1="401.164" y2="401.164" gradientUnits="userSpaceOnUse"></linearGradient><linearGradient id="g"><stop offset="0" stop-color="#5a5a5a"></stop><stop offset="1" stop-color="#444"></stop></linearGradient><linearGradient xlink:href="#g" id="x" x1="212.23" x2="234.31" y1="386.152" y2="430.716" gradientUnits="userSpaceOnUse"></linearGradient><linearGradient xlink:href="#g" id="y" x1="196.14" x2="218.221" y1="394.125" y2="438.688" gradientUnits="userSpaceOnUse"></linearGradient><linearGradient xlink:href="#a" id="z" x1="192.115" x2="489.604" y1="249.352" y2="487.825" gradientUnits="userSpaceOnUse"></linearGradient><linearGradient xlink:href="#b" id="A" x1="458.839" x2="516.7" y1="381.369" y2="381.369" gradientUnits="userSpaceOnUse"></linearGradient><linearGradient xlink:href="#b" id="B" x1="243.135" x2="365.081" y1="350.138" y2="500.99" gradientUnits="userSpaceOnUse"></linearGradient><linearGradient xlink:href="#b" id="C" x1="261.728" x2="231.788" y1="401.718" y2="203.896" gradientUnits="userSpaceOnUse"></linearGradient><linearGradient xlink:href="#b" id="D" x1="252.292" x2="245.065" y1="455.717" y2="493.054" gradientUnits="userSpaceOnUse"></linearGradient><linearGradient xlink:href="#b" id="E" x1="-1184.405" x2="-1191.632" y1="455.717" y2="493.054" gradientTransform="matrix(-1 0 0 1 -754.03 0)" gradientUnits="userSpaceOnUse"></linearGradient><linearGradient xlink:href="#a" id="F" x1="340.198" x2="344.714" y1="252.63" y2="312.85" gradientUnits="userSpaceOnUse"></linearGradient><linearGradient xlink:href="#b" id="G" x1="354.003" x2="338.32" y1="306.167" y2="258.642" gradientUnits="userSpaceOnUse"></linearGradient><linearGradient xlink:href="#b" id="H" x1="289.479" x2="292.791" y1="255.743" y2="269.594" gradientUnits="userSpaceOnUse"></linearGradient><linearGradient xlink:href="#c" id="I" x1="311.417" x2="334.903" y1="241.959" y2="299.168" gradientUnits="userSpaceOnUse"></linearGradient><linearGradient xlink:href="#d" id="J" x1="337.143" x2="332.39" y1="282.715" y2="262.517" gradientUnits="userSpaceOnUse"></linearGradient><linearGradient xlink:href="#d" id="K" x1="272.6" x2="272.6" y1="276.793" y2="289.977" gradientUnits="userSpaceOnUse"></linearGradient><linearGradient xlink:href="#d" id="L" x1="254.39" x2="263.503" y1="313.359" y2="313.359" gradientUnits="userSpaceOnUse"></linearGradient><linearGradient xlink:href="#d" id="M" x1="245.928" x2="244.121" y1="332.881" y2="343.119" gradientUnits="userSpaceOnUse"></linearGradient><linearGradient xlink:href="#e" id="N" x1="202.556" x2="244.464" y1="400.245" y2="472.421" gradientUnits="userSpaceOnUse"></linearGradient><linearGradient xlink:href="#f" id="O" x1="223.706" x2="220.505" y1="444.794" y2="458.764" gradientUnits="userSpaceOnUse"></linearGradient><linearGradient xlink:href="#f" id="P" x1="250.913" x2="261.822" y1="441.407" y2="441.407" gradientUnits="userSpaceOnUse"></linearGradient><linearGradient xlink:href="#g" id="Q" x1="382.896" x2="404.977" y1="426.395" y2="470.958" gradientUnits="userSpaceOnUse"></linearGradient><linearGradient xlink:href="#g" id="R" x1="366.807" x2="388.888" y1="434.367" y2="478.93" gradientUnits="userSpaceOnUse"></linearGradient><linearGradient xlink:href="#a" id="S" x1="101.779" x2="399.268" y1="23.5" y2="261.973" gradientUnits="userSpaceOnUse"></linearGradient><linearGradient xlink:href="#b" id="T" x1="368.502" x2="426.364" y1="155.517" y2="155.517" gradientUnits="userSpaceOnUse"></linearGradient><linearGradient xlink:href="#b" id="U" x1="152.799" x2="274.745" y1="124.286" y2="275.138" gradientUnits="userSpaceOnUse"></linearGradient><linearGradient xlink:href="#b" id="V" x1="161.956" x2="154.729" y1="229.865" y2="267.202" gradientUnits="userSpaceOnUse"></linearGradient><linearGradient xlink:href="#b" id="W" x1="-1094.069" x2="-1101.295" y1="229.865" y2="267.202" gradientTransform="matrix(-1 0 0 1 -754.03 0)" gradientUnits="userSpaceOnUse"></linearGradient><linearGradient xlink:href="#a" id="X" x1="249.861" x2="254.378" y1="26.778" y2="86.998" gradientUnits="userSpaceOnUse"></linearGradient><linearGradient xlink:href="#b" id="Y" x1="199.143" x2="202.455" y1="29.891" y2="43.741" gradientUnits="userSpaceOnUse"></linearGradient><linearGradient xlink:href="#c" id="Z" x1="221.081" x2="244.567" y1="16.107" y2="73.316" gradientUnits="userSpaceOnUse"></linearGradient><linearGradient xlink:href="#d" id="aa" x1="182.264" x2="182.264" y1="50.941" y2="64.125" gradientUnits="userSpaceOnUse"></linearGradient><linearGradient xlink:href="#d" id="ab" x1="164.054" x2="173.167" y1="87.506" y2="87.506" gradientUnits="userSpaceOnUse"></linearGradient><linearGradient xlink:href="#d" id="ac" x1="155.592" x2="153.785" y1="107.029" y2="117.266" gradientUnits="userSpaceOnUse"></linearGradient><linearGradient xlink:href="#e" id="ad" x1="112.22" x2="154.128" y1="174.393" y2="246.569" gradientUnits="userSpaceOnUse"></linearGradient><linearGradient xlink:href="#f" id="ae" x1="133.37" x2="130.169" y1="218.942" y2="232.912" gradientUnits="userSpaceOnUse"></linearGradient><linearGradient xlink:href="#f" id="af" x1="160.577" x2="171.486" y1="215.555" y2="215.555" gradientUnits="userSpaceOnUse"></linearGradient><linearGradient xlink:href="#g" id="ag" x1="292.56" x2="314.641" y1="200.543" y2="245.106" gradientUnits="userSpaceOnUse"></linearGradient><linearGradient xlink:href="#g" id="ah" x1="276.471" x2="298.552" y1="208.515" y2="253.078" gradientUnits="userSpaceOnUse"></linearGradient><path fill="url(#h)" d="M341.333 238.835v179.697c0 7.29-5.018 13.626-12.114 15.299l-154.946 36.553a15.78 15.78 0 0 1-7.214 0L12.114 433.831A15.723 15.723 0 0 1 0 418.532V238.835c0-4.384 1.816-8.414 4.798-11.303h331.72v-.017a15.69 15.69 0 0 1 4.815 11.32z" opacity="1" data-original="url(#h)"></path><path fill="url(#i)" d="M170.667 279.078v-16.682h17.59z" opacity="1" data-original="url(#i)"></path><path fill="url(#j)" d="M336.518 227.532h-95.921v227.205l88.622-20.907a15.722 15.722 0 0 0 12.114-15.299V238.835a15.69 15.69 0 0 0-4.815-11.32z" opacity="1" data-original="url(#j)"></path><path fill="url(#k)" d="M170.667 227.532v243.265c-1.208 0-2.416-.135-3.607-.414L12.114 433.831A15.723 15.723 0 0 1 0 418.532V238.835c0-4.384 1.816-8.414 4.798-11.303z" opacity="1" data-original="url(#k)"></path><path fill="url(#l)" d="M170.667 227.532v243.265c-1.208 0-2.416-.135-3.607-.414L12.114 433.831A15.723 15.723 0 0 1 0 418.532V238.835c0-4.384 1.816-8.414 4.798-11.303z" opacity="1" data-original="url(#l)"></path><path fill="url(#m)" d="M170.667 360.007v110.79c-1.208 0-2.416-.135-3.607-.414L12.114 433.831A15.723 15.723 0 0 1 0 418.532v-96.7l153.248 36.147a75.814 75.814 0 0 0 17.419 2.028z" opacity="1" data-original="url(#m)"></path><path fill="url(#n)" d="M170.667 360.007v110.79c1.208 0 2.416-.135 3.607-.414L329.22 433.83a15.722 15.722 0 0 0 12.114-15.299v-96.7L188.086 357.98a75.881 75.881 0 0 1-17.419 2.027z" opacity="1" data-original="url(#n)"></path><path fill="url(#o)" d="m336.518 227.532-156.77 36.984a39.492 39.492 0 0 1-18.162 0L4.815 227.532a15.738 15.738 0 0 1 7.29-3.996l154.954-36.553a15.753 15.753 0 0 1 7.214 0l57.858 13.651v6.969h29.558l67.538 15.932a15.747 15.747 0 0 1 7.291 3.997z" opacity="1" data-original="url(#o)"></path><path fill="url(#p)" d="M232.131 200.635v6.969l-155.9 36.781-71.416-16.853a15.738 15.738 0 0 1 7.29-3.996l154.954-36.553a15.753 15.753 0 0 1 7.214 0z" opacity="1" data-original="url(#p)"></path><path fill="url(#q)" d="M232.131 200.626 64.729 240.122a4.243 4.243 0 0 0-3.269 4.129l-.011 52.507c0 1.144.787 2.138 1.9 2.401l24.634 5.806a2.466 2.466 0 0 0 3.032-2.4v-51.636a3.87 3.87 0 0 1 2.982-3.767l167.691-39.56z" opacity="1" data-original="url(#q)"></path><path fill="url(#r)" d="m141.1 236.056-47.104 11.109a3.874 3.874 0 0 0-1.791.98l-29.44-6.944a4.268 4.268 0 0 1 1.96-1.081l46.8-11.041z" opacity="1" data-original="url(#r)"></path><path fill="url(#s)" d="m62.766 241.2 29.431 6.944a3.873 3.873 0 0 0-1.183 2.788v51.632a2.461 2.461 0 0 1-3.033 2.399l-24.633-5.803a2.467 2.467 0 0 1-1.901-2.399l.008-52.51a4.204 4.204 0 0 1 1.311-3.051z" opacity="1" data-original="url(#s)"></path><path fill="url(#t)" d="m61.452 271.478-.004 25.282c0 1.141.786 2.137 1.901 2.399l24.633 5.803a2.46 2.46 0 0 0 3.033-2.399v-31.086H61.452z" opacity="1" data-original="url(#t)"></path><path fill="url(#u)" d="m18.689 411.299 67.92 16.023a3.583 3.583 0 0 0 4.406-3.487v-37.301a3.582 3.582 0 0 0-2.76-3.487l-67.92-16.021a3.583 3.583 0 0 0-4.406 3.487v37.299a3.582 3.582 0 0 0 2.76 3.487z" opacity="1" data-original="url(#u)"></path><path fill="url(#v)" d="M15.929 381.087v26.724a3.582 3.582 0 0 0 2.76 3.487l67.92 16.023a3.583 3.583 0 0 0 4.406-3.487V398.8z" opacity="1" data-original="url(#v)"></path><path fill="url(#w)" d="m88.254 383.046-34.491-8.136v44.663l32.846 7.749a3.583 3.583 0 0 0 4.406-3.487v-37.302a3.584 3.584 0 0 0-2.761-3.487z" opacity="1" data-original="url(#w)"></path><path fill="url(#x)" d="M197.64 418.256v.076a3.296 3.296 0 0 0 4.053 3.208l48.742-11.497a3.297 3.297 0 0 0 2.54-3.208v-.076a3.296 3.296 0 0 0-4.053-3.208l-48.742 11.497a3.297 3.297 0 0 0-2.54 3.208z" opacity="1" data-original="url(#x)"></path><path fill="url(#y)" d="m201.693 434.432 24.296-5.73a3.297 3.297 0 0 0 2.54-3.208v-.077a3.296 3.296 0 0 0-4.053-3.208l-24.296 5.731a3.297 3.297 0 0 0-2.54 3.208v.077a3.296 3.296 0 0 0 4.053 3.207z" opacity="1" data-original="url(#y)"></path><path fill="url(#z)" d="M512 279.078v179.697c0 7.29-5.018 13.626-12.114 15.299L344.94 510.626a15.78 15.78 0 0 1-7.214 0L182.78 474.073a15.722 15.722 0 0 1-12.114-15.299V279.078c0-4.384 1.816-8.414 4.798-11.303h331.72v-.017c3 2.889 4.816 6.927 4.816 11.32z" opacity="1" data-original="url(#z)"></path><path fill="url(#A)" d="M507.185 267.775h-95.921V494.98l88.622-20.907A15.722 15.722 0 0 0 512 458.774V279.078a15.69 15.69 0 0 0-4.815-11.32z" opacity="1" data-original="url(#A)"></path><path fill="url(#B)" d="M341.333 267.775V511.04c-1.208 0-2.416-.135-3.607-.414L182.78 474.073a15.722 15.722 0 0 1-12.114-15.299V279.078c0-4.384 1.816-8.414 4.798-11.303z" opacity="1" data-original="url(#B)"></path><path fill="url(#C)" d="M341.333 267.775V511.04c-1.208 0-2.416-.135-3.607-.414L182.78 474.073a15.722 15.722 0 0 1-12.114-15.299V279.078c0-4.384 1.816-8.414 4.798-11.303z" opacity="1" data-original="url(#C)"></path><path fill="url(#D)" d="M341.333 400.25v110.79c-1.208 0-2.416-.135-3.607-.414L182.78 474.073a15.722 15.722 0 0 1-12.114-15.299v-96.7l153.248 36.147a75.773 75.773 0 0 0 17.419 2.029z" opacity="1" data-original="url(#D)"></path><path fill="url(#E)" d="M341.333 400.25v110.79c1.208 0 2.416-.135 3.607-.414l154.946-36.553A15.722 15.722 0 0 0 512 458.774v-96.7l-153.248 36.147a75.76 75.76 0 0 1-17.419 2.029z" opacity="1" data-original="url(#E)"></path><path fill="url(#F)" d="m507.185 267.775-156.77 36.984a39.492 39.492 0 0 1-18.162 0l-156.77-36.984a15.738 15.738 0 0 1 7.29-3.996l154.954-36.553a15.753 15.753 0 0 1 7.214 0l57.858 13.651v6.969h29.558l67.538 15.932a15.74 15.74 0 0 1 7.29 3.997z" opacity="1" data-original="url(#F)"></path><path fill="url(#G)" d="m507.185 267.775-156.77 36.984a39.492 39.492 0 0 1-18.162 0l-156.77-36.984a15.738 15.738 0 0 1 7.29-3.996l154.954-36.553a15.753 15.753 0 0 1 7.214 0l57.858 13.651v6.969h29.558l67.538 15.932a15.74 15.74 0 0 1 7.29 3.997z" opacity="1" data-original="url(#G)"></path><path fill="url(#H)" d="M402.798 240.878v6.969l-155.9 36.781-71.416-16.853a15.738 15.738 0 0 1 7.29-3.996l154.954-36.553a15.753 15.753 0 0 1 7.214 0z" opacity="1" data-original="url(#H)"></path><path fill="url(#I)" d="m402.798 240.869-167.403 39.496a4.243 4.243 0 0 0-3.269 4.129l-.011 52.507c0 1.144.787 2.138 1.9 2.401l24.634 5.806a2.466 2.466 0 0 0 3.032-2.4v-51.636a3.87 3.87 0 0 1 2.982-3.767l167.691-39.56z" opacity="1" data-original="url(#I)"></path><path fill="url(#J)" d="m402.8 240.87-167.4 39.49c-.76.18-1.44.56-1.97 1.08l29.43 6.95c.49-.48 1.1-.82 1.8-.99l167.69-39.56z" opacity="1" data-original="url(#J)"></path><path fill="url(#K)" d="m311.767 276.298-47.104 11.109a3.874 3.874 0 0 0-1.791.98l-29.44-6.944a4.268 4.268 0 0 1 1.96-1.081l46.8-11.041z" opacity="1" data-original="url(#K)"></path><path fill="url(#L)" d="m233.432 281.443 29.431 6.944a3.873 3.873 0 0 0-1.183 2.788v51.632a2.46 2.46 0 0 1-3.033 2.399l-24.633-5.803a2.467 2.467 0 0 1-1.901-2.399l.008-52.51a4.206 4.206 0 0 1 1.311-3.051z" opacity="1" data-original="url(#L)"></path><path fill="url(#M)" d="m232.118 311.721-.004 25.282c0 1.141.786 2.137 1.901 2.399l24.633 5.803a2.46 2.46 0 0 0 3.033-2.399V311.72h-29.563z" opacity="1" data-original="url(#M)"></path><path fill="url(#N)" d="m189.356 451.542 67.92 16.023a3.583 3.583 0 0 0 4.406-3.487v-37.301a3.582 3.582 0 0 0-2.76-3.487l-67.92-16.021a3.583 3.583 0 0 0-4.406 3.487v37.299a3.582 3.582 0 0 0 2.76 3.487z" opacity="1" data-original="url(#N)"></path><path fill="url(#O)" d="M186.595 421.33v26.724a3.582 3.582 0 0 0 2.76 3.487l67.92 16.023a3.583 3.583 0 0 0 4.406-3.487v-25.034z" opacity="1" data-original="url(#O)"></path><path fill="url(#P)" d="m258.921 423.288-34.491-8.136v44.663l32.846 7.749a3.583 3.583 0 0 0 4.406-3.487v-37.302a3.585 3.585 0 0 0-2.761-3.487z" opacity="1" data-original="url(#P)"></path><path fill="url(#Q)" d="M368.307 458.499v.076a3.296 3.296 0 0 0 4.053 3.208l48.742-11.497a3.297 3.297 0 0 0 2.54-3.208v-.076a3.296 3.296 0 0 0-4.053-3.208l-48.742 11.497a3.295 3.295 0 0 0-2.54 3.208z" opacity="1" data-original="url(#Q)"></path><path fill="url(#R)" d="m372.359 474.675 24.296-5.73a3.297 3.297 0 0 0 2.54-3.208v-.077a3.296 3.296 0 0 0-4.053-3.208l-24.296 5.731a3.297 3.297 0 0 0-2.54 3.208v.077a3.296 3.296 0 0 0 4.053 3.207z" opacity="1" data-original="url(#R)"></path><path fill="url(#S)" d="M421.664 53.225v179.697c0 7.29-5.018 13.626-12.114 15.299l-154.946 36.553a15.78 15.78 0 0 1-7.214 0L92.444 248.221a15.722 15.722 0 0 1-12.114-15.299V53.225c0-4.384 1.816-8.414 4.798-11.303h331.72v-.017a15.69 15.69 0 0 1 4.816 11.32z" opacity="1" data-original="url(#S)"></path><path fill="url(#T)" d="M416.849 41.923h-95.921v227.205l88.622-20.907a15.722 15.722 0 0 0 12.114-15.299V53.225a15.69 15.69 0 0 0-4.815-11.32z" opacity="1" data-original="url(#T)"></path><path fill="url(#U)" d="M250.997 41.923v243.265c-1.208 0-2.416-.135-3.607-.414L92.444 248.221a15.722 15.722 0 0 1-12.114-15.299V53.225c0-4.384 1.816-8.414 4.798-11.303h165.869z" opacity="1" data-original="url(#U)"></path><path fill="url(#V)" d="M250.997 174.398v110.79c-1.208 0-2.416-.135-3.607-.414L92.444 248.221a15.722 15.722 0 0 1-12.114-15.299v-96.7l153.248 36.147a75.773 75.773 0 0 0 17.419 2.029z" opacity="1" data-original="url(#V)"></path><path fill="url(#W)" d="M250.997 174.398v110.79c1.208 0 2.416-.135 3.607-.414l154.946-36.553a15.722 15.722 0 0 0 12.114-15.299v-96.7L268.416 172.37a75.814 75.814 0 0 1-17.419 2.028z" opacity="1" data-original="url(#W)"></path><path fill="url(#X)" d="m416.849 41.923-156.77 36.984a39.492 39.492 0 0 1-18.162 0L85.146 41.923a15.738 15.738 0 0 1 7.29-3.996L247.39 1.374a15.753 15.753 0 0 1 7.214 0l57.858 13.651v6.969h29.558l67.538 15.932a15.729 15.729 0 0 1 7.291 3.997z" opacity="1" data-original="url(#X)"></path><path fill="url(#Y)" d="M312.462 15.025v6.969l-155.9 36.781-71.416-16.852a15.738 15.738 0 0 1 7.29-3.996L247.39 1.374a15.753 15.753 0 0 1 7.214 0z" opacity="1" data-original="url(#Y)"></path><path fill="url(#Z)" d="M312.462 15.017 145.059 54.513a4.243 4.243 0 0 0-3.269 4.129l-.011 52.507c0 1.144.787 2.138 1.9 2.401l24.634 5.806a2.466 2.466 0 0 0 3.032-2.4V65.32a3.87 3.87 0 0 1 2.982-3.767l167.691-39.56z" opacity="1" data-original="url(#Z)"></path><path fill="url(#aa)" d="m221.431 50.446-47.104 11.109a3.874 3.874 0 0 0-1.791.98l-29.44-6.944a4.268 4.268 0 0 1 1.96-1.081l46.8-11.041z" opacity="1" data-original="url(#aa)"></path><path fill="url(#ab)" d="m143.096 55.591 29.431 6.944a3.873 3.873 0 0 0-1.183 2.788v51.632a2.46 2.46 0 0 1-3.033 2.399l-24.633-5.803a2.467 2.467 0 0 1-1.901-2.399l.008-52.51a4.204 4.204 0 0 1 1.311-3.051z" opacity="1" data-original="url(#ab)"></path><path fill="url(#ac)" d="m141.782 85.869-.004 25.282c0 1.141.786 2.137 1.901 2.399l24.633 5.803a2.46 2.46 0 0 0 3.033-2.399V85.869z" opacity="1" data-original="url(#ac)"></path><path fill="url(#ad)" d="m99.02 225.689 67.92 16.023a3.583 3.583 0 0 0 4.406-3.487v-37.301a3.582 3.582 0 0 0-2.76-3.487l-67.92-16.021a3.583 3.583 0 0 0-4.406 3.487v37.299a3.58 3.58 0 0 0 2.76 3.487z" opacity="1" data-original="url(#ad)"></path><path fill="url(#ae)" d="M96.259 195.477v26.724a3.582 3.582 0 0 0 2.76 3.487l67.92 16.023a3.583 3.583 0 0 0 4.406-3.487V213.19z" opacity="1" data-original="url(#ae)"></path><path fill="url(#af)" d="m168.584 197.436-34.491-8.136v44.663l32.846 7.749a3.583 3.583 0 0 0 4.406-3.487v-37.302a3.582 3.582 0 0 0-2.761-3.487z" opacity="1" data-original="url(#af)"></path><path fill="url(#ag)" d="M277.971 232.646v.076a3.296 3.296 0 0 0 4.053 3.208l48.742-11.497a3.297 3.297 0 0 0 2.54-3.208v-.076a3.296 3.296 0 0 0-4.053-3.208l-48.742 11.497a3.295 3.295 0 0 0-2.54 3.208z" opacity="1" data-original="url(#ag)"></path><path fill="url(#ah)" d="m282.023 248.823 24.296-5.73a3.297 3.297 0 0 0 2.54-3.208v-.077a3.296 3.296 0 0 0-4.053-3.208l-24.296 5.731a3.297 3.297 0 0 0-2.54 3.208v.077a3.296 3.296 0 0 0 4.053 3.207z" opacity="1" data-original="url(#ah)"></path></g></svg>