<svg xmlns="http://www.w3.org/2000/svg" version="1.1" xmlns:xlink="http://www.w3.org/1999/xlink" width="512" height="512" x="0" y="0" viewBox="0 0 512 512" style="enable-background:new 0 0 512 512" xml:space="preserve"><g><path fill="#00d8e0" d="m369.484 96.766-85.02-85.024C276.673 3.95 268.606 0 260.489 0c-12.383 0-24.883 9.89-24.883 31.98v23.38C114.895 62.487 14.965 155.124.113 276.41a14.997 14.997 0 0 0 9.367 15.77 14.997 14.997 0 0 0 17.625-5.086c39.836-54.43 103.797-86.926 171.094-86.926 12.473 0 25.008 1.125 37.406 3.352v25.742c0 8.176 1.637 15.035 4.856 20.379 4.445 7.375 11.742 11.601 20.027 11.601 8.117 0 16.184-3.953 23.977-11.742l85.02-85.023c18.667-18.668 18.667-49.047 0-67.711zm0 0" opacity="1" data-original="#00d8e0"></path><path fill="#54e360" d="M438.258 219.82a15.003 15.003 0 0 0-17.625 5.09c-39.836 54.426-103.797 86.922-171.094 86.922a211.853 211.853 0 0 1-37.406-3.352v-25.742c0-22.09-12.496-31.98-24.883-31.98-8.117 0-16.184 3.953-23.973 11.746l-85.023 85.02c-18.668 18.667-18.668 49.042 0 67.714l85.023 85.02C171.067 508.05 179.133 512 187.25 512c12.387 0 24.883-9.89 24.883-31.98v-23.38c120.715-7.128 220.644-99.765 235.492-221.046a14.999 14.999 0 0 0-9.367-15.774zm0 0" opacity="1" data-original="#54e360"></path><path fill="#00acb3" d="M235.605 229.262c0 8.175 1.637 15.035 4.856 20.379 4.445 7.375 11.742 11.601 20.027 11.601 8.117 0 16.184-3.953 23.977-11.742l85.02-85.023c18.667-18.668 18.667-49.043 0-67.711l-85.02-85.024C276.672 3.95 268.605 0 260.488 0c-12.383 0-24.883 9.89-24.883 31.98v23.38c-3.933.234-7.847.562-11.738.976v145.422c3.922.484 7.84 1.062 11.738 1.762zm0 0" opacity="1" data-original="#00acb3"></path><path fill="#00ab5e" d="M438.258 219.82a15.003 15.003 0 0 0-17.625 5.09c-39.836 54.426-103.797 86.922-171.094 86.922-8.547 0-17.125-.543-25.672-1.59v145.422c115.403-12.226 209.39-102.742 223.758-220.07a14.999 14.999 0 0 0-9.367-15.774zm0 0" opacity="1" data-original="#00ab5e"></path></g></svg>