<svg xmlns="http://www.w3.org/2000/svg" version="1.1" xmlns:xlink="http://www.w3.org/1999/xlink" width="512" height="512" x="0" y="0" viewBox="0 0 32 32" style="enable-background:new 0 0 512 512" xml:space="preserve" class=""><g><path d="M28.945 9.047A2.992 2.992 0 0 0 26.669 8H8.545l-.414-2.347A2 2 0 0 0 6.161 4H3a1 1 0 0 0 0 2h3.161l2.563 14.522a2.985 2.985 0 0 0 1.058 1.8A3.464 3.464 0 0 0 9 24.5a3.5 3.5 0 0 0 7 0 3.464 3.464 0 0 0-.351-1.5h5.7A3.464 3.464 0 0 0 21 24.5a3.5 3.5 0 1 0 6.2-2.194 2.988 2.988 0 0 0 1.044-1.85l1.385-9a2.99 2.99 0 0 0-.684-2.409ZM14 24.5a1.5 1.5 0 1 1-1.5-1.5 1.5 1.5 0 0 1 1.5 1.5ZM24.5 26a1.5 1.5 0 1 1 1.5-1.5 1.5 1.5 0 0 1-1.5 1.5Zm1.772-5.848a1 1 0 0 1-.988.848H11.678a1 1 0 0 1-.986-.826L8.9 10h17.769a1 1 0 0 1 .988 1.152Z" data-name="Layer 2" fill="#000000" opacity="1" data-original="#000000"></path></g></svg>