<svg xmlns="http://www.w3.org/2000/svg" version="1.1" xmlns:xlink="http://www.w3.org/1999/xlink" width="512" height="512" x="0" y="0" viewBox="0 0 512 512" style="enable-background:new 0 0 512 512" xml:space="preserve" class=""><g><path fill="#ffaf45" d="m248.5 76.041-144.6 83.482a14.999 14.999 0 0 0-7.5 12.99v166.973a14.999 14.999 0 0 0 7.5 12.99l144.6 83.482a15.002 15.002 0 0 0 15 0l144.6-83.482a14.999 14.999 0 0 0 7.5-12.99V172.514a14.999 14.999 0 0 0-7.5-12.99L263.5 76.041a14.998 14.998 0 0 0-15 0z" opacity="1" data-original="#ffaf45" class=""></path><path fill="#ff7845" d="M256 437.969c2.59 0 5.179-.67 7.5-2.009l144.6-83.482a14.999 14.999 0 0 0 7.5-12.99V172.514c0-2.68-.715-5.257-2.01-7.5L256 256.004z" opacity="1" data-original="#ff7845"></path><path fill="#ffe400" d="M256 74.031c-2.59 0-5.179.67-7.5 2.01l-144.6 83.482a14.981 14.981 0 0 0-5.49 5.491L256 256.004z" opacity="1" data-original="#ffe400"></path><path fill="#f4fbff" d="M161.197 126.444 320.8 218.59l30-17.322-159.599-92.146z" opacity="1" data-original="#f4fbff"></path><path fill="#d2edff" d="m255.998 146.533.002 34.645 64.8 37.412v35.517c0 8.284 6.716 15 15 15s15-6.716 15-15v-52.839z" opacity="1" data-original="#d2edff"></path><path fill="#b0dfff" d="M320.8 218.59v35.517c0 8.284 6.716 15 15 15s15-6.716 15-15v-52.839z" opacity="1" data-original="#b0dfff"></path><path fill="#ff3d8c" d="M256 0C114.841 0 0 114.841 0 256s114.841 256 256 256 256-114.841 256-256S397.159 0 256 0zM30 256C30 131.383 131.383 30 256 30c35.783 0 69.642 8.373 99.743 23.24L130.297 443.724C69.855 403.119 30 334.129 30 256zm226 226c-35.783 0-69.642-8.373-99.743-23.241L381.703 68.276C442.145 108.881 482 177.871 482 256c0 124.617-101.383 226-226 226z" opacity="1" data-original="#ff3d8c" class=""></path><path fill="#d7008c" d="M355.743 53.24 256 226v60L381.703 68.276C442.145 108.881 482 177.871 482 256c0 124.617-101.383 226-226 226v30c141.159 0 256-114.841 256-256S397.159 0 256 0v30c35.783 0 69.642 8.373 99.743 23.24z" opacity="1" data-original="#d7008c" class=""></path></g></svg>