<svg xmlns="http://www.w3.org/2000/svg" version="1.1" xmlns:xlink="http://www.w3.org/1999/xlink" width="512" height="512" x="0" y="0" viewBox="0 0 32 32" style="enable-background:new 0 0 512 512" xml:space="preserve" class=""><g><path fill="#000000" fill-rule="evenodd" d="M17.293 20.293a1 1 0 0 1 1.414 0L23 24.586l4.293-4.293a1 1 0 0 1 1.414 1.414l-5 5a1 1 0 0 1-1.414 0l-5-5a1 1 0 0 1 0-1.414Z" clip-rule="evenodd" opacity="1" data-original="#000000"></path><path fill="#000000" fill-rule="evenodd" d="M23 13a1 1 0 0 1 1 1v12a1 1 0 1 1-2 0V14a1 1 0 0 1 1-1ZM5 16a1 1 0 0 1 1-1h9a1 1 0 1 1 0 2H6a1 1 0 0 1-1-1ZM5 8a1 1 0 0 1 1-1h17a1 1 0 1 1 0 2H6a1 1 0 0 1-1-1ZM5 24a1 1 0 0 1 1-1h7a1 1 0 1 1 0 2H6a1 1 0 0 1-1-1Z" clip-rule="evenodd" opacity="1" data-original="#000000"></path></g></svg>