<svg xmlns="http://www.w3.org/2000/svg" version="1.1" xmlns:xlink="http://www.w3.org/1999/xlink" width="512" height="512" x="0" y="0" viewBox="0 0 512 512" style="enable-background:new 0 0 512 512" xml:space="preserve" class=""><g><path fill="#78d0b1" d="M512 256c0 99.25-56.48 185.31-139.06 227.78-38.969-17.92-70.74-10.6-110.48-9.63-2.15.06-4.3.09-6.46.09-9.19 0-18.26 37.28-27.2 36.33C100.21 496.99 0 388.19 0 256 0 123.89 100.08 15.15 228.56 1.46c9.02-.97 15.712 19.558 24.982 19.558 4.07 0 8.12.1 12.15.29 38.52 1.79 77.278-8.909 109.508 8.082C456.55 72.27 512 157.66 512 256z" opacity="1" data-original="#78d0b1" class=""></path><path fill="#b46e59" d="m262.32 410.4-24.05 24.05-20.2 20.2-18.71 18.71c-4.64 4.64-10.73 6.97-16.82 6.97s-12.18-2.33-16.82-6.97c-9.28-9.29-9.28-24.34 0-33.63l16.32-16.32 18.65-18.65 28-28c9.29-9.28 20.14-5.08 29.43 4.21 9.28 9.29 13.49 20.14 4.2 29.43z" opacity="1" data-original="#b46e59"></path><path fill="#a55e4d" d="m210.405 415.079-34.672 34.684c-7.546 7.546-8.955 18.893-4.252 27.861a23.874 23.874 0 0 1-5.769-4.253c-9.287-9.287-9.287-24.342 0-33.629l62.982-62.982c6.87-6.871-11.834 20.053-18.289 38.319z" opacity="1" data-original="#a55e4d"></path><path fill="#ffddce" d="M141.655 116.283a24.856 24.856 0 0 0-7.308 17.635c0 6.391 2.433 12.781 7.308 17.646-9.741-9.741-25.53-9.741-35.281 0a24.89 24.89 0 0 0-7.309 17.646c0 6.38 2.443 12.759 7.309 17.635l16.22 16.22c-9.741-9.741-25.541-9.741-35.282 0a24.883 24.883 0 0 0-7.308 17.635c0 6.38 2.443 12.759 7.297 17.635h.011v.011C45.01 294.801 188.093 416.81 228.803 449.736l56.576 12.416 87.568-74.863 4.445-104.263-57.98-92.178-142.475-74.565c-9.742-9.741-25.542-9.741-35.282 0z" opacity="1" data-original="#ffddce"></path><path fill="#a55e4d" d="m238.27 434.45-20.2 20.2c-9.5-7.85-22.16-18.61-36.03-31.24l18.65-18.65c12.05 10.27 24.77 20.27 37.58 29.69z" opacity="1" data-original="#a55e4d"></path><path fill="#ffcbbe" d="M87.312 238.347c-42.302 56.455 100.781 178.464 141.491 211.39l30.814-13.345c-69.524-47.941-143.481-117.321-132.458-158.208z" opacity="1" data-original="#ffcbbe"></path><path fill="#b46e59" d="M392.498 256.071c-5.871 13.738-28.28 58.16-81.546 84.97-8.447 4.261-18.042 4.325-26.284.848v-.011a31.297 31.297 0 0 1-12.106-9.026l-.032-.032a24.966 24.966 0 0 1-.955-1.245 31.371 31.371 0 0 1-6.171-18.718 31.404 31.404 0 0 1 8.983-22.023c12.139-12.375 26.413-29.375 31.747-45.356l-129.201-129.2a24.877 24.877 0 0 0-11.291-6.483c.343-.633 12.611-23.225 42.158-43.51h.011c9.23 4.508 19.823 2.587 30.792-1.009 18.235-5.967 37.489-16.56 53.18-9.874 18.739 7.985 28.184 60.586 47.234 67.841 6.805 8.146 34.645 43.081 47.964 85.4 3.939 12.514 6.622 25.683 7.094 38.992a19.597 19.597 0 0 1-1.577 8.436z" opacity="1" data-original="#b46e59"></path><path fill="#a55e4d" d="M207.806 66.285h-.011c-29.543 20.289-41.805 42.877-42.148 43.508a24.849 24.849 0 0 1 11.289 6.49l78.369 78.369c-27.575-27.575-39.361-87.236-19.061-114.822 2.709-3.693 3.328-8.679 2.355-14.55-10.968 3.593-21.561 5.516-30.793 1.005z" opacity="1" data-original="#a55e4d"></path><path fill="#ffcbbe" d="M147.419 111.98a24.846 24.846 0 0 0-5.76 4.301 24.857 24.857 0 0 0-7.309 17.635c0 6.391 2.433 12.781 7.309 17.646l82.415 82.413c6.484-3.608 7.715-12.418 2.468-17.665l-74.821-74.81c-4.876-4.865-7.308-11.255-7.308-17.646a24.791 24.791 0 0 1 3.006-11.874zM93.828 198.354a25.137 25.137 0 0 0-6.512 4.699 24.89 24.89 0 0 0-7.308 17.646 24.9 24.9 0 0 0 7.308 17.635l67.003 66.992a20.24 20.24 0 0 0-2.76-25.183l-53.031-53.031a24.883 24.883 0 0 1-7.308-17.635 24.985 24.985 0 0 1 2.608-11.123zM111.828 147.449a24.543 24.543 0 0 0-5.451 4.124 24.903 24.903 0 0 0-7.309 17.635 24.885 24.885 0 0 0 7.309 17.646l75.377 75.363c4.964-5.832 4.616-14.5-.8-19.916L132.16 193.51l-16.22-16.209c-4.876-4.876-7.308-11.256-7.308-17.646a24.834 24.834 0 0 1 3.196-12.206z" opacity="1" data-original="#ffcbbe"></path><path fill="#a55e4d" d="M284.667 341.878a31.297 31.297 0 0 1-12.106-9.026l-.032-.032a24.966 24.966 0 0 1-.955-1.245 31.371 31.371 0 0 1-6.171-18.718 31.404 31.404 0 0 1 8.983-22.023c12.139-12.375 26.413-29.375 31.747-45.356l15.09 11.559c0-.001-55.392 51.902-36.556 84.841z" opacity="1" data-original="#a55e4d"></path><path fill="#b46e59" d="M195.645 376.174c-9.287-9.287-24.345-9.287-33.633 0 9.287-9.287 9.287-24.345 0-33.633-9.287-9.287-24.345-9.287-33.633 0l2.755-2.755c9.287-9.287 9.287-24.345 0-33.633-9.287-9.287-24.345-9.287-33.633 0l-10.44 10.44c-9.287 9.287-9.287 24.345 0 33.633 9.287 9.287 24.345 9.287 33.632 0l-2.755 2.755c-9.287 9.287-9.287 24.345 0 33.633 9.287 9.287 24.345 9.287 33.633 0-9.287 9.287-9.287 24.345 0 33.633 9.287 9.287 24.345 9.287 33.633 0l10.44-10.44c9.289-9.288 9.289-24.346.001-33.633z" opacity="1" data-original="#b46e59"></path><g fill="#a55e4d"><path d="M135.384 311.922c-8.967-4.703-20.315-3.293-27.872 4.252l-10.436 10.448c-7.546 7.545-8.955 18.893-4.253 27.861a23.874 23.874 0 0 1-5.769-4.253c-9.287-9.287-9.287-24.342 0-33.629l10.448-10.448c9.287-9.287 24.342-9.287 33.629 0a23.847 23.847 0 0 1 4.253 5.769zM166.262 348.31c-8.967-4.703-20.315-3.293-27.872 4.252l-10.436 10.448c-7.546 7.545-8.955 18.893-4.253 27.861a23.874 23.874 0 0 1-5.769-4.253c-9.287-9.287-9.287-24.342 0-33.629l10.448-10.448c9.287-9.287 24.342-9.287 33.629 0a23.854 23.854 0 0 1 4.253 5.769zM199.894 381.942c-8.967-4.703-20.315-3.293-27.872 4.252l-10.436 10.448c-7.546 7.545-8.955 18.893-4.253 27.861a23.874 23.874 0 0 1-5.769-4.253c-9.287-9.287-9.287-24.342 0-33.629l10.448-10.448c9.287-9.287 24.342-9.287 33.629 0a23.847 23.847 0 0 1 4.253 5.769z" fill="#a55e4d" opacity="1" data-original="#a55e4d"></path></g><path fill="#634086" d="m375.2 29.39-36.18 93.85-102.37-44.43-28.85-12.52 20.76-64.83C237.58.49 246.73 0 256 0c43.04 0 83.6 10.62 119.2 29.39z" opacity="1" data-original="#634086"></path><path fill="#543673" d="m268.15.29-31.5 78.52-28.85-12.52 20.76-64.83C237.58.49 246.73 0 256 0c4.07 0 8.12.1 12.15.29z" opacity="1" data-original="#543673"></path><path fill="#ffddce" d="M372.94 387.29v96.49C337.89 501.82 298.13 512 256 512c-9.19 0-18.26-.48-27.2-1.43v-60.83l36.6-15.85z" opacity="1" data-original="#ffddce"></path><path fill="#ffcbbe" d="M262.46 511.91c-2.15.06-4.3.09-6.46.09-9.19 0-18.26-.48-27.2-1.43v-60.83l30.82-13.35z" opacity="1" data-original="#ffcbbe"></path></g></svg>