<svg xmlns="http://www.w3.org/2000/svg" version="1.1" xmlns:xlink="http://www.w3.org/1999/xlink" width="512" height="512" x="0" y="0" viewBox="0 0 64 64" style="enable-background:new 0 0 512 512" xml:space="preserve" class=""><g><linearGradient id="a" x1="36.47" x2="6.04" y1="6.16" y2="44.3" gradientUnits="userSpaceOnUse"><stop offset="0" stop-color="#ffc033"></stop><stop offset="1" stop-color="#ef8e2e"></stop></linearGradient><linearGradient id="c" x1="47.25" x2="19.39" y1="8.77" y2="55.91" gradientUnits="userSpaceOnUse"><stop offset="0" stop-color="#ce7f20"></stop><stop offset="1" stop-color="#b2500d"></stop></linearGradient><linearGradient xlink:href="#a" id="d" x1="44.5" x2="44.5" y1="7.76" y2="61"></linearGradient><linearGradient id="b" x1="42.5" x2="52.99" y1="8.77" y2="8.77" gradientUnits="userSpaceOnUse"><stop offset="0" stop-color="#002237"></stop><stop offset="1" stop-color="#003352"></stop></linearGradient><linearGradient xlink:href="#b" id="e" x1="39.71" x2="50.29" y1="40" y2="40"></linearGradient><path fill="url(#a)" d="M43.37 8.88a1.06 1.06 0 0 0-.92-.57l-8.93.17a8.9 8.9 0 0 0-6.2 2.63L4.85 33.58a5 5 0 0 0 0 7.07c6.56 6.41 6.26 6.59 7 6.57a1 1 0 0 0 .72-.36L43.23 10a1 1 0 0 0 .14-1.12z" opacity="1" data-original="url(#a)"></path><path fill="url(#c)" d="m41.3 8.87-8.6 2.47a9 9 0 0 0-5.3 4.15L11.51 43a5 5 0 0 0 1.83 6.83l16.45 9.5c1.21.67 3.21 1.18 3.47-.14L42.56 10a1 1 0 0 0-1.26-1.13z" opacity="1" data-original="url(#c)"></path><path fill="url(#d)" d="M56.48 18 48.1 9.29a5 5 0 0 0-7.2 0L32.52 18A9 9 0 0 0 30 24.23V56a5 5 0 0 0 5 5h19a5 5 0 0 0 5-5V24.23A9 9 0 0 0 56.48 18z" opacity="1" data-original="url(#d)" class=""></path><path fill="url(#b)" d="M51 2.88c0 .06-.77 5.68-5.21 8.27a2 2 0 1 0 .66 1.92C52 10.11 53 3.44 53 3.12z" opacity="1" data-original="url(#b)"></path><path fill="url(#e)" d="M46.29 39H46v-4h.29a2 2 0 0 1 2 2h2a4 4 0 0 0-4-4H46v-2.43h-2V33h-.29a4 4 0 0 0 0 8H44v4h-.29a2 2 0 0 1-2-2h-2a4 4 0 0 0 4 4H44v2.43h2V47h.29a4 4 0 0 0 0-8zm-2.58 0a2 2 0 0 1 0-4H44v4zm2.58 6H46v-4h.29a2 2 0 0 1 0 4z" opacity="1" data-original="url(#e)"></path></g></svg>