<svg xmlns="http://www.w3.org/2000/svg" version="1.1" xmlns:xlink="http://www.w3.org/1999/xlink" width="512" height="512" x="0" y="0" viewBox="0 0 512 512" style="enable-background:new 0 0 512 512" xml:space="preserve" class=""><g><path fill="#e8916f" d="M366.21 206.465c0 13.3-8 24.082-17.862 24.082-9.868 0-15.598-12.383-15.598-25.684s5.73-22.484 15.598-22.484c9.863 0 17.863 10.781 17.863 24.086zm0 0" opacity="1" data-original="#e8916f"></path><path fill="#d98868" d="M478.54 206.465c0 13.3 8 24.082 17.862 24.082 9.868 0 15.598-12.383 15.598-25.684s-5.73-22.484-15.598-22.484c-9.867 0-17.863 10.781-17.863 24.086zM404.156 281.125h36.434v58.383h-36.434zm0 0" opacity="1" data-original="#d98868"></path><path fill="#ebad88" d="M356.793 228.73v-49.238c0-34.156 27.687-61.844 61.844-61.844h7.476c34.153 0 61.84 27.688 61.84 61.844v49.238c0 36.192-29.34 65.532-65.527 65.532h-.106c-36.187 0-65.527-29.34-65.527-65.532zm0 0" opacity="1" data-original="#ebad88"></path><path fill="#e8916f" d="M426.066 117.648h-7.382c-2.45 0-4.864.16-7.239.438 30.766 3.594 54.649 29.77 54.649 61.55v48.942c0 32.547-23.633 59.559-54.649 64.77 3.555.597 7.203.914 10.93.914 36.219 0 65.578-29.41 65.578-65.684v-48.945c0-34.23-27.707-61.985-61.887-61.985zm0 0" opacity="1" data-original="#e8916f"></path><path fill="#47d5e6" d="M507.629 382.64v8.333a4 4 0 0 1-4 4H341.12c-2.21 0-4-1.79-4-4v-8.332c0-35.864 25.219-64.938 56.328-64.938h57.852c31.11 0 56.328 29.074 56.328 64.938zm0 0" opacity="1" data-original="#47d5e6"></path><path fill="#22c0d4" d="M451.3 317.703h-30.905c31.109 0 56.328 29.074 56.328 64.938v12.332h26.906a4 4 0 0 0 4-4v-8.332c0-35.864-25.219-64.938-56.328-64.938zm0 0" opacity="1" data-original="#22c0d4"></path><path fill="#dcdfe8" d="M395.066 317.703h54.614l-27.305 77.27zm0 0" opacity="1" data-original="#dcdfe8"></path><path fill="#20b5c7" d="m422.375 394.973-19.32-81.426a3.001 3.001 0 0 0-3.903-2.145l-16.117 5.59a4 4 0 0 0-2.726 3.79v28.363c0 .765.293 1.5.816 2.054zM422.375 394.973l19.32-81.426a3 3 0 0 1 3.903-2.145l16.117 5.59a3.996 3.996 0 0 1 2.723 3.79v28.363c0 .765-.29 1.5-.817 2.054zm0 0" opacity="1" data-original="#20b5c7"></path><path fill="#ffd659" d="M356.512 192.742s5.457 2.207 11.058-8.32c6.407-12.035 23.285-18.758 43.516-18.024 23.348.844 33.898-6.753 39.273-14.972a1.002 1.002 0 0 1 1.793.222c6.844 20.383 16.133 15.368 22.239 34.211 3.617 11.16 13.097 6.883 13.097 6.883s26.094-15.152 12.649-39.21c2.308-48.352-35.547-51.216-35.547-51.216s-17.305-22.007-64.735-10.558c-68.44 16.515-56.289 64.683-56.289 64.683s-11.77 22.817 12.946 36.301zm0 0" opacity="1" data-original="#ffd659"></path><path fill="#ffbd54" d="M500.133 153.531c2.312-48.347-35.547-51.21-35.547-51.21s-15.012-19.063-55.356-12.458c8.668 1.75 14.766 4.848 18.707 7.516a56.932 56.932 0 0 0 13.47 6.726c10.94 3.754 29.456 15.18 27.82 49.426 5.32 9.516 4.445 17.63 1.457 23.973 1.32 2.172 2.57 4.848 3.707 8.355 3.617 11.16 13.097 6.883 13.097 6.883s26.094-15.152 12.645-39.21zm0 0" opacity="1" data-original="#ffbd54"></path><path fill="#d98868" d="M71.41 281.125h36.434v58.383H71.41zm0 0" opacity="1" data-original="#d98868"></path><path fill="#ebad88" d="M24.047 228.73v-49.238c0-34.156 27.687-61.844 61.84-61.844h7.476c34.157 0 61.84 27.688 61.84 61.844v49.238c0 36.192-29.336 65.532-65.527 65.532h-.102c-36.191 0-65.527-29.34-65.527-65.532zm0 0" opacity="1" data-original="#ebad88"></path><path fill="#e8916f" d="M93.316 117.648h-7.382c-2.45 0-4.864.16-7.239.438 30.766 3.594 54.649 29.77 54.649 61.55v48.942c0 32.547-23.633 59.559-54.649 64.77 3.555.597 7.203.914 10.93.914 36.219 0 65.578-29.41 65.578-65.684v-48.945c.004-34.23-27.707-61.985-61.887-61.985zm0 0" opacity="1" data-original="#e8916f"></path><path fill="#ff2c5c" d="M174.879 382.64v8.333c0 2.21-1.79 4-4 4H8.37a4 4 0 0 1-4-4v-8.332c0-35.864 25.219-64.938 56.328-64.938h57.852c31.11 0 56.328 29.074 56.328 64.938zm0 0" opacity="1" data-original="#ff2c5c"></path><path fill="#e62753" d="M118.55 317.703H87.646c31.113 0 56.328 29.074 56.328 64.938v12.332h26.906c2.21 0 4-1.79 4-4v-8.332c0-35.864-25.219-64.938-56.328-64.938zm0 0" opacity="1" data-original="#e62753"></path><path fill="#dcdfe8" d="M62.32 317.703h54.614l-27.309 77.27zm0 0" opacity="1" data-original="#dcdfe8"></path><path fill="#d6244d" d="m89.625 394.973-19.328-81.457a2.998 2.998 0 0 0-3.875-2.153l-16.137 5.426a3.996 3.996 0 0 0-2.722 3.79v28.566c0 .761.289 1.5.816 2.054zM89.625 394.973l19.328-81.457a3 3 0 0 1 3.875-2.153l16.137 5.426a4 4 0 0 1 2.726 3.79v28.566a3 3 0 0 1-.816 2.054zm0 0" opacity="1" data-original="#d6244d"></path><path fill="#ffd659" d="M102.309 149.605s-38.282 17.215-51.5 39.446c-17.371 29.21-17.836 59.328-26.422 88.058-.492 1.645-2.688 1.957-3.614.508C14.891 268.414 0 242.461 0 215.484 0 71.227 105.465 88.691 110.176 99.652c21.27-8.906 63.926 9.5 63.926 94.004 0 40.707-4.594 68.723-16.997 86.692-.996 1.441-3.226 1.02-3.609-.692-2.39-10.738-8.629-40.039-11.605-65.988-6.817-59.492-39.582-64.063-39.582-64.063zm0 0" opacity="1" data-original="#ffd659"></path><path fill="#ffbd54" d="M110.176 99.652c-1.899-4.414-20.14-9.882-41.25-5.414 3.734.907 6.558 3.239 10.015 9.395 4.61 8.207 11.496 14.957 20.04 18.898 22.972 10.61 37.457 32.75 44.351 71.125 1.629 9.059-.238 17.754-.742 25.692 3.16 24.418 8.691 50.347 10.906 60.308.383 1.707 2.613 2.133 3.61.692 12.402-17.97 16.996-45.985 16.996-86.692 0-84.504-42.657-102.91-63.926-94.004zm0 0" opacity="1" data-original="#ffbd54"></path><path fill="#e8916f" d="M176.594 166.316c0 18.746-11.309 33.942-25.254 33.942-13.95 0-22.05-17.45-22.05-36.196s8.1-31.687 22.05-31.687c13.945 0 25.254 15.195 25.254 33.941zm0 0" opacity="1" data-original="#e8916f"></path><path fill="#d98868" d="M335.406 166.316c0 18.746 11.309 33.942 25.254 33.942 13.95 0 22.05-17.45 22.05-36.196s-8.1-31.687-22.05-31.687c-13.945 0-25.254 15.195-25.254 33.941zM230.246 271.543h51.508v82.285h-51.508zm0 0" opacity="1" data-original="#d98868"></path><path fill="#ebad88" d="M163.285 197.414v-68.84c0-48.289 39.145-87.43 87.43-87.43h10.57c48.29 0 87.434 39.141 87.434 87.43v68.84c0 51.164-41.48 92.645-92.645 92.645h-.144c-51.168 0-92.645-41.48-92.645-92.645zm0 0" opacity="1" data-original="#ebad88"></path><path fill="#e8916f" d="M261.219 41.145H250.78c-3.465 0-6.875.222-10.234.613 43.5 5.066 77.266 41.96 77.266 86.75v68.98c0 45.867-33.415 83.938-77.266 91.285A93.711 93.711 0 0 0 256 290.06c51.207 0 92.715-41.446 92.715-92.57v-68.981c0-48.25-39.172-87.363-87.496-87.363zm0 0" opacity="1" data-original="#e8916f"></path><path fill="#685c79" d="M376.531 414.617V426c0 3.316-2.687 6-6 6H141.47c-3.313 0-6-2.684-6-6v-11.383c0-50.543 35.652-91.515 79.636-91.515h81.79c43.984 0 79.636 40.972 79.636 91.515zm0 0" opacity="1" data-original="#685c79"></path><path fill="#594f69" d="M296.895 323.102h-30.907c43.985 0 79.64 40.972 79.64 91.515V432h24.903c3.317 0 6-2.684 6-6v-11.383c0-50.543-35.652-91.515-79.636-91.515zm0 0" opacity="1" data-original="#594f69"></path><path fill="#ffd659" d="M217.395 323.102h77.21L256 432zm0 0" opacity="1" data-original="#ffd659"></path><g fill="#d98868"><path d="M300.57 211.02a7.5 7.5 0 0 0-9.773 4.12c-.07.18-7.559 17.833-33.871 17.833-26.18 0-35.504-17.473-35.953-18.348a7.503 7.503 0 0 0-10.008-3.395 7.498 7.498 0 0 0-3.445 10.032c.535 1.09 13.472 26.71 49.406 26.71 36.293 0 47.316-26.07 47.765-27.179a7.504 7.504 0 0 0-4.12-9.773zM313.902 151.727c-.761-.184-18.894-4.415-40.328 3.207a7.506 7.506 0 0 0-4.554 9.582 7.508 7.508 0 0 0 7.066 4.988c.836 0 1.684-.14 2.516-.438 17.046-6.062 31.668-2.785 31.785-2.757a7.495 7.495 0 0 0 9.047-5.532 7.5 7.5 0 0 0-5.532-9.05zM233.398 169.066c.832.297 1.68.438 2.512.438a7.5 7.5 0 0 0 7.067-4.988 7.5 7.5 0 0 0-4.551-9.582c-21.434-7.621-39.567-3.391-40.332-3.207-4.012.968-6.473 4.996-5.524 9.015.953 4.02 4.993 6.504 9.012 5.574.148-.035 14.77-3.312 31.816 2.75zm0 0" fill="#d98868" opacity="1" data-original="#d98868"></path></g><path fill="#50475e" d="m256 432-27.64-116.121a2.999 2.999 0 0 0-3.872-2.149l-25.23 8.458a3.997 3.997 0 0 0-2.73 3.792v41.579c0 .96.46 1.867 1.242 2.43l12.59 9.113a3.007 3.007 0 0 1 1.238 2.43v16.718c0 .96.46 1.863 1.238 2.426zM256 432l27.64-116.121a2.999 2.999 0 0 1 3.872-2.149l25.23 8.458a3.997 3.997 0 0 1 2.73 3.792v41.579c0 .96-.46 1.867-1.242 2.43l-12.59 9.113a3.007 3.007 0 0 0-1.238 2.43v16.718c0 .96-.46 1.863-1.238 2.426zm0 0" opacity="1" data-original="#50475e"></path><path fill="#8c4a37" d="M162.887 146.98s7.71 3.106 15.633-11.726c9.054-16.965 32.921-26.438 61.52-25.406 33.702 1.215 48.542-9.97 55.991-21.832a.998.998 0 0 1 1.793.222c9.703 29.688 23.004 22.227 31.719 49.04 5.11 15.73 18.516 9.702 18.516 9.702s36.89-21.355 17.879-55.265c3.265-68.145-50.258-72.18-50.258-72.18S291.219-11.48 224.16 4.652c-96.762 23.282-79.582 91.168-79.582 91.168s-16.64 32.157 18.309 51.16zm0 0" opacity="1" data-original="#8c4a37"></path><path fill="#804231" d="M365.938 91.715c3.265-68.145-50.258-72.18-50.258-72.18S296.207-5.152 244.387.98c28.875 3.961 40.386 18.555 40.386 18.555s53.524 4.035 50.258 72.18c11.207 19.992 2.985 35.617-5.652 45.078.055.164.11.32.16.484 5.113 15.73 18.52 9.703 18.52 9.703s36.89-21.355 17.878-55.265zm0 0" opacity="1" data-original="#804231"></path></g></svg>