<svg xmlns="http://www.w3.org/2000/svg" version="1.1" xmlns:xlink="http://www.w3.org/1999/xlink" width="512" height="512" x="0" y="0" viewBox="0 0 64 64" style="enable-background:new 0 0 512 512" xml:space="preserve" class=""><g><path fill="#ebebed" d="M6.782 16.339C7.336 10.447 12.414 6 18.445 6h17.503a2 2 0 1 0 0-4H18.445C10.465 2 3.558 7.906 2.799 15.964c-1.068 11.35-1.065 20.663.006 32.058C3.563 56.085 10.47 62 18.457 62h27.054c7.95 0 14.842-5.859 15.634-13.885.676-6.841.952-12.933.825-19.156a2 2 0 1 0-4 .082c.105 5.112-.07 10.146-.527 15.639-4.382-6.988-14.635-6.997-19.121-.305l-5.174-6.114c-6.127-7.242-17.531-6.421-22.559 1.623L6.655 46.18c-.913-10.486-.872-19.232.127-29.84z" opacity="1" data-original="#ebebed"></path><path fill="#fa1228" d="M47.414 2.586a2 2 0 1 0-2.828 2.828L50.172 11l-5.586 5.586a2 2 0 1 0 2.828 2.828L53 13.828l5.586 5.586a2 2 0 1 0 2.828-2.828L55.828 11l5.586-5.586a2 2 0 1 0-2.828-2.828L53 8.172z" opacity="1" data-original="#fa1228"></path></g></svg>